%TF.GenerationSoftware,KiCad,Pcbnew,(6.99.0-1665-g4ee6cfe5b6)*%
%TF.CreationDate,2022-06-28T13:02:27+08:00*%
%TF.ProjectId,NoiseAmplifyingProbe,4e6f6973-6541-46d7-906c-696679696e67,rev?*%
%TF.SameCoordinates,Original*%
%TF.FileFunction,Copper,L2,Inr*%
%TF.FilePolarity,Positive*%
%FSLAX46Y46*%
G04 Gerber Fmt 4.6, Leading zero omitted, Abs format (unit mm)*
G04 Created by KiCad (PCBNEW (6.99.0-1665-g4ee6cfe5b6)) date 2022-06-28 13:02:27*
%MOMM*%
%LPD*%
G01*
G04 APERTURE LIST*
%TA.AperFunction,ComponentPad*%
%ADD10R,1.600000X1.600000*%
%TD*%
%TA.AperFunction,ComponentPad*%
%ADD11C,1.600000*%
%TD*%
%TA.AperFunction,ComponentPad*%
%ADD12O,2.100000X1.000000*%
%TD*%
%TA.AperFunction,ComponentPad*%
%ADD13O,1.600000X1.000000*%
%TD*%
%TA.AperFunction,ComponentPad*%
%ADD14R,1.700000X1.700000*%
%TD*%
%TA.AperFunction,ComponentPad*%
%ADD15O,1.700000X1.700000*%
%TD*%
%TA.AperFunction,ViaPad*%
%ADD16C,0.800000*%
%TD*%
G04 APERTURE END LIST*
D10*
%TO.N,+5V*%
%TO.C,C3*%
X132517620Y-92099999D03*
D11*
%TO.N,GND*%
X135017621Y-92100000D03*
%TD*%
D12*
%TO.N,GNDPWR*%
%TO.C,J1*%
X136519999Y-67279999D03*
D13*
X132339999Y-67279999D03*
D12*
X136519999Y-75919999D03*
D13*
X132339999Y-75919999D03*
%TD*%
D10*
%TO.N,VCC*%
%TO.C,C11*%
X132539999Y-103199999D03*
D11*
%TO.N,GND*%
X135040000Y-103200000D03*
%TD*%
D10*
%TO.N,Net-(J1-VBUS)*%
%TO.C,C2*%
X132417620Y-62799999D03*
D11*
%TO.N,GNDPWR*%
X134917621Y-62800000D03*
%TD*%
D14*
%TO.N,GNDPWR*%
%TO.C,J2*%
X131599999Y-78999999D03*
D15*
%TO.N,Net-(J1-VBUS)*%
X131599999Y-81539999D03*
%TO.N,GND*%
X131599999Y-84079999D03*
%TO.N,+5V*%
X131599999Y-86619999D03*
%TD*%
D10*
%TO.N,Net-(C1-Pad1)*%
%TO.C,C1*%
X151459999Y-126979999D03*
D11*
%TO.N,Net-(U1A-+)*%
X154960000Y-126980000D03*
%TD*%
D16*
%TO.N,Net-(J1-VBUS)*%
X138425000Y-73850000D03*
X138425000Y-69050000D03*
%TO.N,GNDPWR*%
X131175000Y-65650000D03*
X131650000Y-72625000D03*
X133860000Y-78990000D03*
X137975000Y-62975000D03*
X135400000Y-81700000D03*
X133450000Y-70700000D03*
X131400000Y-69850000D03*
%TO.N,+5V*%
X131975000Y-97825000D03*
%TO.N,GND*%
X137700000Y-92700000D03*
X138550000Y-103350000D03*
X134500000Y-89800000D03*
X134600000Y-101125000D03*
X138675000Y-86625000D03*
X134275000Y-109475000D03*
X130800000Y-106250000D03*
X133140000Y-114370000D03*
X134870000Y-114370000D03*
X137825000Y-87375000D03*
X137075000Y-84150000D03*
X136220000Y-113720000D03*
X134750000Y-84375000D03*
X130950000Y-109600000D03*
X138725000Y-97550000D03*
X138575000Y-90475000D03*
X130900000Y-121900000D03*
X135350000Y-122025000D03*
X137625000Y-105000000D03*
X138770000Y-110940000D03*
X137500000Y-85550000D03*
X131000000Y-127000000D03*
X130900000Y-94750000D03*
X137100000Y-94625000D03*
X137700000Y-102175000D03*
X130950000Y-100375000D03*
X138450000Y-126975000D03*
X134010000Y-114360000D03*
X138800000Y-119475000D03*
X133900000Y-97200000D03*
X134375000Y-124200000D03*
X133950000Y-86775000D03*
X136475000Y-97400000D03*
X138800000Y-115150000D03*
X138550000Y-121075000D03*
X134150000Y-121175000D03*
%TO.N,VAA*%
X146650000Y-79500000D03*
X147400000Y-104300000D03*
X137175000Y-131675000D03*
%TO.N,GNDA*%
X156500000Y-79000000D03*
X135600000Y-59400000D03*
X147000000Y-119900000D03*
X154000000Y-79000000D03*
X156500000Y-69000000D03*
X156500000Y-91500000D03*
X144750000Y-93800000D03*
X149000000Y-59250000D03*
X154000000Y-77750000D03*
X156500000Y-87750000D03*
X154000000Y-69000000D03*
X146750000Y-63000000D03*
X149000000Y-60500000D03*
X146750000Y-65500000D03*
X154000000Y-80250000D03*
X151200000Y-64500000D03*
X144900000Y-112850000D03*
X154800000Y-98900000D03*
X146750000Y-74250000D03*
X149000000Y-76750000D03*
X154250000Y-97250000D03*
X156500000Y-59000000D03*
X151750000Y-97250000D03*
X154000000Y-70250000D03*
X141000000Y-126100000D03*
X156500000Y-72750000D03*
X154750000Y-125000000D03*
X157800000Y-98500000D03*
X153000000Y-94750000D03*
X149000000Y-69250000D03*
X156500000Y-82750000D03*
X156500000Y-80250000D03*
X154000000Y-60250000D03*
X141000000Y-55500000D03*
X154250000Y-122500000D03*
X142250000Y-53000000D03*
X154000000Y-72750000D03*
X132600000Y-54100000D03*
X149000000Y-68000000D03*
X148300000Y-133600000D03*
X153500000Y-106900000D03*
X156500000Y-65250000D03*
X139750000Y-53000000D03*
X156500000Y-60250000D03*
X156500000Y-64000000D03*
X154000000Y-75250000D03*
X151750000Y-117500000D03*
X146750000Y-64250000D03*
X143050000Y-117250000D03*
X156500000Y-66500000D03*
X156500000Y-81500000D03*
X154000000Y-81500000D03*
X149000000Y-65500000D03*
X151750000Y-120000000D03*
X138700000Y-136100000D03*
X150250000Y-97750000D03*
X149000000Y-56750000D03*
X156500000Y-67750000D03*
X149000000Y-79250000D03*
X156500000Y-75250000D03*
X133700000Y-136400000D03*
X158800000Y-138000000D03*
X142200000Y-132100000D03*
X146000000Y-92600000D03*
X154250000Y-118750000D03*
X158200000Y-62100000D03*
X159200000Y-58800000D03*
X143500000Y-132100000D03*
X149000000Y-63000000D03*
X149000000Y-75500000D03*
X154000000Y-71500000D03*
X141000000Y-130700000D03*
X145450000Y-97250000D03*
X146750000Y-69250000D03*
X146000000Y-55500000D03*
X140300000Y-64700000D03*
X149000000Y-70500000D03*
X158050000Y-116850000D03*
X134500000Y-57100000D03*
X142850000Y-59450000D03*
X149000000Y-73000000D03*
X149000000Y-78000000D03*
X154000000Y-64000000D03*
X144750000Y-53000000D03*
X154000000Y-59000000D03*
X146750000Y-76750000D03*
X141200000Y-86400000D03*
X149000000Y-61750000D03*
X154250000Y-123750000D03*
X151600000Y-73900000D03*
X146600000Y-136900000D03*
X156500000Y-90250000D03*
X146750000Y-71750000D03*
X146750000Y-78000000D03*
X149000000Y-71750000D03*
X156500000Y-70250000D03*
X148500000Y-128250000D03*
X156500000Y-84000000D03*
X157700000Y-103150000D03*
X142600000Y-133700000D03*
X154250000Y-120000000D03*
X149750000Y-125750000D03*
X158550000Y-84000000D03*
X154000000Y-67750000D03*
X146750000Y-70500000D03*
X151900000Y-78900000D03*
X141000000Y-132100000D03*
X131400000Y-59200000D03*
X134500000Y-52000000D03*
X146750000Y-66750000D03*
X154250000Y-121250000D03*
X151750000Y-116250000D03*
X140700000Y-71000000D03*
X154000000Y-65250000D03*
X151100000Y-69000000D03*
X154000000Y-76500000D03*
X146750000Y-68000000D03*
X144900000Y-108500000D03*
X148500000Y-125750000D03*
X142250000Y-55500000D03*
X149000000Y-74250000D03*
X157300000Y-54200000D03*
X148500000Y-54250000D03*
X151750000Y-122500000D03*
X139750000Y-55500000D03*
X142600000Y-102850000D03*
X146750000Y-59250000D03*
X149200000Y-117000000D03*
X154000000Y-89000000D03*
X156500000Y-92750000D03*
X149250000Y-95000000D03*
X154000000Y-92750000D03*
X146750000Y-61750000D03*
X146600000Y-51200000D03*
X156500000Y-62750000D03*
X156500000Y-74000000D03*
X155400000Y-51400000D03*
X156500000Y-71500000D03*
X147750000Y-97750000D03*
X152000000Y-112250000D03*
X156500000Y-85250000D03*
X150300000Y-56500000D03*
X153000000Y-54400000D03*
X140350000Y-88000000D03*
X140650000Y-68000000D03*
X151750000Y-115000000D03*
X145600000Y-90500000D03*
X156500000Y-89000000D03*
X154000000Y-62750000D03*
X149000000Y-55500000D03*
X155500000Y-104700000D03*
X142000000Y-62800000D03*
X151200000Y-59600000D03*
X141000000Y-127600000D03*
X146750000Y-58000000D03*
X149750000Y-128250000D03*
X154000000Y-87750000D03*
X143400000Y-121800000D03*
X151750000Y-121250000D03*
X154250000Y-117500000D03*
X146750000Y-60500000D03*
X156500000Y-95250000D03*
X146750000Y-75500000D03*
X154000000Y-94000000D03*
X140500000Y-121900000D03*
X154000000Y-61500000D03*
X142400000Y-57900000D03*
X143000000Y-51500000D03*
X147750000Y-96500000D03*
X147250000Y-53000000D03*
X155500000Y-96500000D03*
X146000000Y-53000000D03*
X145000000Y-121800000D03*
X146100000Y-116700000D03*
X154000000Y-82750000D03*
X156500000Y-76500000D03*
X145300000Y-132100000D03*
X140900000Y-75000000D03*
X156500000Y-77750000D03*
X151750000Y-125000000D03*
X149000000Y-58000000D03*
X146750000Y-73000000D03*
X151750000Y-94750000D03*
X154250000Y-115000000D03*
X140900000Y-78500000D03*
X156500000Y-61500000D03*
X143500000Y-55500000D03*
X147750000Y-99000000D03*
X149000000Y-64250000D03*
X131900000Y-135700000D03*
X154250000Y-116250000D03*
X152000000Y-111250000D03*
X143500000Y-53000000D03*
X143200000Y-137400000D03*
X156500000Y-94000000D03*
X149400000Y-121000000D03*
X151750000Y-118750000D03*
X144750000Y-55500000D03*
X154000000Y-74000000D03*
X150500000Y-94750000D03*
X144600000Y-101300000D03*
X141000000Y-129100000D03*
X149000000Y-66750000D03*
X140400000Y-95100000D03*
X151750000Y-123750000D03*
X153000000Y-97250000D03*
X146750000Y-56750000D03*
X147750000Y-100250000D03*
X141000000Y-53000000D03*
X154000000Y-66500000D03*
%TO.N,VEE*%
X132225000Y-131675000D03*
X150100000Y-86250000D03*
X153075000Y-109225000D03*
%TO.N,VCC*%
X135375000Y-98850000D03*
X134300000Y-111600000D03*
X136700000Y-106800000D03*
X133292500Y-116692500D03*
X136200000Y-115300000D03*
%TO.N,Net-(U4-OUT+)*%
X137175000Y-121950000D03*
X137175000Y-116675000D03*
%TO.N,Net-(U4-OUT-)*%
X132225000Y-111950000D03*
X132225000Y-121900000D03*
%TD*%
%TA.AperFunction,Conductor*%
%TO.N,GNDPWR*%
G36*
X131105706Y-61633502D02*
G01*
X131152199Y-61687158D01*
X131162303Y-61757432D01*
X131155640Y-61783533D01*
X131118386Y-61883412D01*
X131118384Y-61883421D01*
X131115632Y-61890799D01*
X131109121Y-61951362D01*
X131109121Y-63648638D01*
X131115632Y-63709201D01*
X131166732Y-63846204D01*
X131172131Y-63853416D01*
X131172132Y-63853418D01*
X131205125Y-63897491D01*
X131254360Y-63963261D01*
X131371417Y-64050889D01*
X131508420Y-64101989D01*
X131545326Y-64105957D01*
X131565633Y-64108140D01*
X131565636Y-64108140D01*
X131568983Y-64108500D01*
X133266259Y-64108500D01*
X133269606Y-64108140D01*
X133269609Y-64108140D01*
X133289916Y-64105957D01*
X133326822Y-64101989D01*
X133463825Y-64050889D01*
X133580882Y-63963261D01*
X133630117Y-63897491D01*
X133638673Y-63886062D01*
X134196114Y-63886062D01*
X134205410Y-63898077D01*
X134256615Y-63933931D01*
X134266110Y-63939414D01*
X134463568Y-64031490D01*
X134473860Y-64035236D01*
X134684309Y-64091625D01*
X134695102Y-64093528D01*
X134912146Y-64112517D01*
X134923096Y-64112517D01*
X135140140Y-64093528D01*
X135150933Y-64091625D01*
X135361382Y-64035236D01*
X135371674Y-64031490D01*
X135569132Y-63939414D01*
X135578627Y-63933931D01*
X135630669Y-63897491D01*
X135639045Y-63887012D01*
X135631977Y-63873566D01*
X134930433Y-63172022D01*
X134916489Y-63164408D01*
X134914656Y-63164539D01*
X134908041Y-63168790D01*
X134202544Y-63874287D01*
X134196114Y-63886062D01*
X133638673Y-63886062D01*
X133663110Y-63853418D01*
X133663111Y-63853416D01*
X133668510Y-63846204D01*
X133719610Y-63709201D01*
X133726121Y-63648638D01*
X133726121Y-63645269D01*
X133726141Y-63644899D01*
X133749764Y-63577948D01*
X133795781Y-63542204D01*
X133794762Y-63540266D01*
X133805631Y-63534553D01*
X133805833Y-63534396D01*
X133805963Y-63534378D01*
X133844055Y-63514356D01*
X134545599Y-62812812D01*
X134551977Y-62801132D01*
X135282029Y-62801132D01*
X135282160Y-62802965D01*
X135286411Y-62809580D01*
X135991908Y-63515077D01*
X136003683Y-63521507D01*
X136015698Y-63512211D01*
X136051552Y-63461006D01*
X136057035Y-63451511D01*
X136149111Y-63254053D01*
X136152857Y-63243761D01*
X136209246Y-63033312D01*
X136211149Y-63022519D01*
X136230138Y-62805475D01*
X136230138Y-62794525D01*
X136211149Y-62577481D01*
X136209246Y-62566688D01*
X136152857Y-62356239D01*
X136149111Y-62345947D01*
X136057035Y-62148489D01*
X136051552Y-62138994D01*
X136015112Y-62086952D01*
X136004633Y-62078576D01*
X135991187Y-62085644D01*
X135289643Y-62787188D01*
X135282029Y-62801132D01*
X134551977Y-62801132D01*
X134553213Y-62798868D01*
X134553082Y-62797035D01*
X134548831Y-62790420D01*
X133843334Y-62084923D01*
X133801567Y-62062116D01*
X133791620Y-62059951D01*
X133741422Y-62009745D01*
X133726195Y-61956112D01*
X133726121Y-61954731D01*
X133726121Y-61951362D01*
X133719610Y-61890799D01*
X133716858Y-61883421D01*
X133716856Y-61883412D01*
X133679602Y-61783533D01*
X133674536Y-61712718D01*
X133708561Y-61650405D01*
X133770873Y-61616380D01*
X133797657Y-61613500D01*
X134067787Y-61613500D01*
X134135908Y-61633502D01*
X134179318Y-61680876D01*
X134203265Y-61726434D01*
X134904809Y-62427978D01*
X134918753Y-62435592D01*
X134920586Y-62435461D01*
X134927201Y-62431210D01*
X135632698Y-61725713D01*
X135658008Y-61679363D01*
X135658083Y-61679019D01*
X135708328Y-61628860D01*
X135768618Y-61613500D01*
X138874000Y-61613500D01*
X138942121Y-61633502D01*
X138988614Y-61687158D01*
X139000000Y-61739500D01*
X139000000Y-68117506D01*
X138979998Y-68185627D01*
X138926342Y-68232120D01*
X138856068Y-68242224D01*
X138822752Y-68232613D01*
X138713323Y-68183892D01*
X138713315Y-68183889D01*
X138707288Y-68181206D01*
X138613888Y-68161353D01*
X138526944Y-68142872D01*
X138526939Y-68142872D01*
X138520487Y-68141500D01*
X138329513Y-68141500D01*
X138323061Y-68142872D01*
X138323056Y-68142872D01*
X138236112Y-68161353D01*
X138142712Y-68181206D01*
X138136682Y-68183891D01*
X138136681Y-68183891D01*
X137974278Y-68256197D01*
X137974276Y-68256198D01*
X137968248Y-68258882D01*
X137962907Y-68262762D01*
X137962906Y-68262763D01*
X137912843Y-68299136D01*
X137813747Y-68371134D01*
X137809326Y-68376044D01*
X137809325Y-68376045D01*
X137763088Y-68427397D01*
X137685960Y-68513056D01*
X137590473Y-68678444D01*
X137531458Y-68860072D01*
X137511496Y-69050000D01*
X137531458Y-69239928D01*
X137590473Y-69421556D01*
X137685960Y-69586944D01*
X137813747Y-69728866D01*
X137968248Y-69841118D01*
X137974276Y-69843802D01*
X137974278Y-69843803D01*
X138006060Y-69857953D01*
X138142712Y-69918794D01*
X138236112Y-69938647D01*
X138323056Y-69957128D01*
X138323061Y-69957128D01*
X138329513Y-69958500D01*
X138520487Y-69958500D01*
X138526939Y-69957128D01*
X138526944Y-69957128D01*
X138613888Y-69938647D01*
X138707288Y-69918794D01*
X138713315Y-69916111D01*
X138713323Y-69916108D01*
X138822752Y-69867387D01*
X138893119Y-69857953D01*
X138957416Y-69888060D01*
X138995229Y-69948149D01*
X139000000Y-69982494D01*
X139000000Y-72917506D01*
X138979998Y-72985627D01*
X138926342Y-73032120D01*
X138856068Y-73042224D01*
X138822752Y-73032613D01*
X138713323Y-72983892D01*
X138713315Y-72983889D01*
X138707288Y-72981206D01*
X138613888Y-72961353D01*
X138526944Y-72942872D01*
X138526939Y-72942872D01*
X138520487Y-72941500D01*
X138329513Y-72941500D01*
X138323061Y-72942872D01*
X138323056Y-72942872D01*
X138236112Y-72961353D01*
X138142712Y-72981206D01*
X138136682Y-72983891D01*
X138136681Y-72983891D01*
X137974278Y-73056197D01*
X137974276Y-73056198D01*
X137968248Y-73058882D01*
X137813747Y-73171134D01*
X137685960Y-73313056D01*
X137590473Y-73478444D01*
X137531458Y-73660072D01*
X137511496Y-73850000D01*
X137531458Y-74039928D01*
X137590473Y-74221556D01*
X137685960Y-74386944D01*
X137813747Y-74528866D01*
X137968248Y-74641118D01*
X137974276Y-74643802D01*
X137974278Y-74643803D01*
X138006060Y-74657953D01*
X138142712Y-74718794D01*
X138232043Y-74737782D01*
X138323056Y-74757128D01*
X138323061Y-74757128D01*
X138329513Y-74758500D01*
X138520487Y-74758500D01*
X138526939Y-74757128D01*
X138526944Y-74757128D01*
X138617957Y-74737782D01*
X138707288Y-74718794D01*
X138713315Y-74716111D01*
X138713323Y-74716108D01*
X138822752Y-74667387D01*
X138893119Y-74657953D01*
X138957416Y-74688060D01*
X138995229Y-74748149D01*
X139000000Y-74782494D01*
X139000000Y-82274000D01*
X138979998Y-82342121D01*
X138926342Y-82388614D01*
X138874000Y-82400000D01*
X132893698Y-82400000D01*
X132825577Y-82379998D01*
X132779084Y-82326342D01*
X132768980Y-82256068D01*
X132788214Y-82205086D01*
X132788779Y-82204221D01*
X132798860Y-82188791D01*
X132889296Y-81982616D01*
X132944564Y-81764368D01*
X132963156Y-81540000D01*
X132944564Y-81315632D01*
X132889296Y-81097384D01*
X132798860Y-80891209D01*
X132675722Y-80702732D01*
X132672197Y-80698903D01*
X132672194Y-80698899D01*
X132532159Y-80546783D01*
X132500738Y-80483118D01*
X132508725Y-80412572D01*
X132553583Y-80357543D01*
X132580827Y-80343389D01*
X132687522Y-80303594D01*
X132703176Y-80295046D01*
X132805693Y-80218302D01*
X132818302Y-80205693D01*
X132895046Y-80103176D01*
X132903595Y-80087520D01*
X132948741Y-79966478D01*
X132952338Y-79951257D01*
X132957640Y-79901938D01*
X132958000Y-79895223D01*
X132958000Y-79272115D01*
X132953525Y-79256876D01*
X132952135Y-79255671D01*
X132944452Y-79254000D01*
X131472000Y-79254000D01*
X131403879Y-79233998D01*
X131357386Y-79180342D01*
X131346000Y-79128000D01*
X131346000Y-78727885D01*
X131854000Y-78727885D01*
X131858475Y-78743124D01*
X131859865Y-78744329D01*
X131867548Y-78746000D01*
X132939885Y-78746000D01*
X132955124Y-78741525D01*
X132956329Y-78740135D01*
X132958000Y-78732452D01*
X132958000Y-78104777D01*
X132957640Y-78098062D01*
X132952338Y-78048743D01*
X132948741Y-78033522D01*
X132903595Y-77912480D01*
X132895046Y-77896824D01*
X132818302Y-77794307D01*
X132805693Y-77781698D01*
X132703176Y-77704954D01*
X132687520Y-77696405D01*
X132566478Y-77651259D01*
X132551257Y-77647662D01*
X132501938Y-77642360D01*
X132495223Y-77642000D01*
X131872115Y-77642000D01*
X131856876Y-77646475D01*
X131855671Y-77647865D01*
X131854000Y-77655548D01*
X131854000Y-78727885D01*
X131346000Y-78727885D01*
X131346000Y-77660115D01*
X131341525Y-77644876D01*
X131340135Y-77643671D01*
X131332452Y-77642000D01*
X130704777Y-77642000D01*
X130698062Y-77642360D01*
X130640906Y-77648505D01*
X130640573Y-77645412D01*
X130584115Y-77642402D01*
X130526517Y-77600892D01*
X130500505Y-77534833D01*
X130500000Y-77523567D01*
X130500000Y-76185530D01*
X131067191Y-76185530D01*
X131102427Y-76301687D01*
X131107141Y-76313069D01*
X131194904Y-76477261D01*
X131201755Y-76487514D01*
X131319861Y-76631427D01*
X131328573Y-76640139D01*
X131472486Y-76758245D01*
X131482739Y-76765096D01*
X131646931Y-76852859D01*
X131658313Y-76857573D01*
X131836468Y-76911616D01*
X131848562Y-76914022D01*
X131987402Y-76927697D01*
X131993574Y-76928000D01*
X132067885Y-76928000D01*
X132083124Y-76923525D01*
X132084329Y-76922135D01*
X132086000Y-76914452D01*
X132086000Y-76909885D01*
X132594000Y-76909885D01*
X132598475Y-76925124D01*
X132599865Y-76926329D01*
X132607548Y-76928000D01*
X132686426Y-76928000D01*
X132692598Y-76927697D01*
X132831438Y-76914022D01*
X132843532Y-76911616D01*
X133021687Y-76857573D01*
X133033069Y-76852859D01*
X133197261Y-76765096D01*
X133207514Y-76758245D01*
X133351427Y-76640139D01*
X133360139Y-76631427D01*
X133478245Y-76487514D01*
X133485096Y-76477261D01*
X133572859Y-76313069D01*
X133577573Y-76301687D01*
X133611048Y-76191337D01*
X133611100Y-76185530D01*
X134997191Y-76185530D01*
X135032427Y-76301687D01*
X135037141Y-76313069D01*
X135124904Y-76477261D01*
X135131755Y-76487514D01*
X135249861Y-76631427D01*
X135258573Y-76640139D01*
X135402486Y-76758245D01*
X135412739Y-76765096D01*
X135576931Y-76852859D01*
X135588313Y-76857573D01*
X135766468Y-76911616D01*
X135778562Y-76914022D01*
X135917402Y-76927697D01*
X135923574Y-76928000D01*
X136247885Y-76928000D01*
X136263124Y-76923525D01*
X136264329Y-76922135D01*
X136266000Y-76914452D01*
X136266000Y-76909885D01*
X136774000Y-76909885D01*
X136778475Y-76925124D01*
X136779865Y-76926329D01*
X136787548Y-76928000D01*
X137116426Y-76928000D01*
X137122598Y-76927697D01*
X137261438Y-76914022D01*
X137273532Y-76911616D01*
X137451687Y-76857573D01*
X137463069Y-76852859D01*
X137627261Y-76765096D01*
X137637514Y-76758245D01*
X137781427Y-76640139D01*
X137790139Y-76631427D01*
X137908245Y-76487514D01*
X137915096Y-76477261D01*
X138002859Y-76313069D01*
X138007573Y-76301687D01*
X138041048Y-76191337D01*
X138041174Y-76177234D01*
X138034255Y-76174000D01*
X136792115Y-76174000D01*
X136776876Y-76178475D01*
X136775671Y-76179865D01*
X136774000Y-76187548D01*
X136774000Y-76909885D01*
X136266000Y-76909885D01*
X136266000Y-76192115D01*
X136261525Y-76176876D01*
X136260135Y-76175671D01*
X136252452Y-76174000D01*
X135011808Y-76174000D01*
X134998277Y-76177973D01*
X134997191Y-76185530D01*
X133611100Y-76185530D01*
X133611174Y-76177234D01*
X133604255Y-76174000D01*
X132612115Y-76174000D01*
X132596876Y-76178475D01*
X132595671Y-76179865D01*
X132594000Y-76187548D01*
X132594000Y-76909885D01*
X132086000Y-76909885D01*
X132086000Y-76192115D01*
X132081525Y-76176876D01*
X132080135Y-76175671D01*
X132072452Y-76174000D01*
X131081808Y-76174000D01*
X131068277Y-76177973D01*
X131067191Y-76185530D01*
X130500000Y-76185530D01*
X130500000Y-75662766D01*
X131068826Y-75662766D01*
X131075745Y-75666000D01*
X132067885Y-75666000D01*
X132083124Y-75661525D01*
X132084329Y-75660135D01*
X132086000Y-75652452D01*
X132086000Y-75647885D01*
X132594000Y-75647885D01*
X132598475Y-75663124D01*
X132599865Y-75664329D01*
X132607548Y-75666000D01*
X133598192Y-75666000D01*
X133609206Y-75662766D01*
X134998826Y-75662766D01*
X135005745Y-75666000D01*
X138028192Y-75666000D01*
X138041723Y-75662027D01*
X138042809Y-75654470D01*
X138007573Y-75538313D01*
X138002859Y-75526931D01*
X137915096Y-75362739D01*
X137908245Y-75352486D01*
X137790139Y-75208573D01*
X137781427Y-75199861D01*
X137637514Y-75081755D01*
X137627261Y-75074904D01*
X137463069Y-74987141D01*
X137451687Y-74982427D01*
X137273532Y-74928384D01*
X137261438Y-74925978D01*
X137122598Y-74912303D01*
X137116426Y-74912000D01*
X136656691Y-74912000D01*
X136588570Y-74891998D01*
X136542077Y-74838342D01*
X136531973Y-74768068D01*
X136540282Y-74737782D01*
X136577527Y-74647865D01*
X136580687Y-74640236D01*
X136600466Y-74490000D01*
X136580687Y-74339764D01*
X136522698Y-74199767D01*
X136430451Y-74079549D01*
X136310233Y-73987302D01*
X136170236Y-73929313D01*
X136057720Y-73914500D01*
X135982280Y-73914500D01*
X135869764Y-73929313D01*
X135729767Y-73987302D01*
X135609549Y-74079549D01*
X135517302Y-74199767D01*
X135459313Y-74339764D01*
X135439534Y-74490000D01*
X135459313Y-74640236D01*
X135517302Y-74780233D01*
X135556828Y-74831744D01*
X135582429Y-74897964D01*
X135568164Y-74967513D01*
X135516262Y-75019570D01*
X135412739Y-75074904D01*
X135402486Y-75081755D01*
X135258573Y-75199861D01*
X135249861Y-75208573D01*
X135131755Y-75352486D01*
X135124904Y-75362739D01*
X135037141Y-75526931D01*
X135032427Y-75538313D01*
X134998952Y-75648663D01*
X134998826Y-75662766D01*
X133609206Y-75662766D01*
X133611723Y-75662027D01*
X133612809Y-75654470D01*
X133577573Y-75538313D01*
X133572859Y-75526931D01*
X133485096Y-75362739D01*
X133478245Y-75352486D01*
X133360139Y-75208573D01*
X133351427Y-75199861D01*
X133207514Y-75081755D01*
X133197261Y-75074904D01*
X133033069Y-74987141D01*
X133021687Y-74982427D01*
X132843532Y-74928384D01*
X132831438Y-74925978D01*
X132692598Y-74912303D01*
X132686426Y-74912000D01*
X132612115Y-74912000D01*
X132596876Y-74916475D01*
X132595671Y-74917865D01*
X132594000Y-74925548D01*
X132594000Y-75647885D01*
X132086000Y-75647885D01*
X132086000Y-74930115D01*
X132081525Y-74914876D01*
X132080135Y-74913671D01*
X132072452Y-74912000D01*
X131993574Y-74912000D01*
X131987402Y-74912303D01*
X131848562Y-74925978D01*
X131836468Y-74928384D01*
X131658313Y-74982427D01*
X131646931Y-74987141D01*
X131482739Y-75074904D01*
X131472486Y-75081755D01*
X131328573Y-75199861D01*
X131319861Y-75208573D01*
X131201755Y-75352486D01*
X131194904Y-75362739D01*
X131107141Y-75526931D01*
X131102427Y-75538313D01*
X131068952Y-75648663D01*
X131068826Y-75662766D01*
X130500000Y-75662766D01*
X130500000Y-67545530D01*
X131067191Y-67545530D01*
X131102427Y-67661687D01*
X131107141Y-67673069D01*
X131194904Y-67837261D01*
X131201755Y-67847514D01*
X131319861Y-67991427D01*
X131328573Y-68000139D01*
X131472486Y-68118245D01*
X131482739Y-68125096D01*
X131646931Y-68212859D01*
X131658313Y-68217573D01*
X131836468Y-68271616D01*
X131848562Y-68274022D01*
X131987402Y-68287697D01*
X131993574Y-68288000D01*
X132067885Y-68288000D01*
X132083124Y-68283525D01*
X132084329Y-68282135D01*
X132086000Y-68274452D01*
X132086000Y-68269885D01*
X132594000Y-68269885D01*
X132598475Y-68285124D01*
X132599865Y-68286329D01*
X132607548Y-68288000D01*
X132686426Y-68288000D01*
X132692598Y-68287697D01*
X132831438Y-68274022D01*
X132843532Y-68271616D01*
X133021687Y-68217573D01*
X133033069Y-68212859D01*
X133197261Y-68125096D01*
X133207514Y-68118245D01*
X133351427Y-68000139D01*
X133360139Y-67991427D01*
X133478245Y-67847514D01*
X133485096Y-67837261D01*
X133572859Y-67673069D01*
X133577573Y-67661687D01*
X133611048Y-67551337D01*
X133611100Y-67545530D01*
X134997191Y-67545530D01*
X135032427Y-67661687D01*
X135037141Y-67673069D01*
X135124904Y-67837261D01*
X135131755Y-67847514D01*
X135249861Y-67991427D01*
X135258573Y-68000139D01*
X135402486Y-68118245D01*
X135412739Y-68125096D01*
X135516262Y-68180430D01*
X135566910Y-68230182D01*
X135582620Y-68299419D01*
X135556828Y-68368256D01*
X135517302Y-68419767D01*
X135459313Y-68559764D01*
X135439534Y-68710000D01*
X135459313Y-68860236D01*
X135517302Y-69000233D01*
X135609549Y-69120451D01*
X135729767Y-69212698D01*
X135869764Y-69270687D01*
X135982280Y-69285500D01*
X136057720Y-69285500D01*
X136170236Y-69270687D01*
X136310233Y-69212698D01*
X136430451Y-69120451D01*
X136522698Y-69000233D01*
X136580687Y-68860236D01*
X136600466Y-68710000D01*
X136580687Y-68559764D01*
X136540282Y-68462218D01*
X136532693Y-68391628D01*
X136564472Y-68328141D01*
X136625530Y-68291914D01*
X136656691Y-68288000D01*
X137116426Y-68288000D01*
X137122598Y-68287697D01*
X137261438Y-68274022D01*
X137273532Y-68271616D01*
X137451687Y-68217573D01*
X137463069Y-68212859D01*
X137627261Y-68125096D01*
X137637514Y-68118245D01*
X137781427Y-68000139D01*
X137790139Y-67991427D01*
X137908245Y-67847514D01*
X137915096Y-67837261D01*
X138002859Y-67673069D01*
X138007573Y-67661687D01*
X138041048Y-67551337D01*
X138041174Y-67537234D01*
X138034255Y-67534000D01*
X135011808Y-67534000D01*
X134998277Y-67537973D01*
X134997191Y-67545530D01*
X133611100Y-67545530D01*
X133611174Y-67537234D01*
X133604255Y-67534000D01*
X132612115Y-67534000D01*
X132596876Y-67538475D01*
X132595671Y-67539865D01*
X132594000Y-67547548D01*
X132594000Y-68269885D01*
X132086000Y-68269885D01*
X132086000Y-67552115D01*
X132081525Y-67536876D01*
X132080135Y-67535671D01*
X132072452Y-67534000D01*
X131081808Y-67534000D01*
X131068277Y-67537973D01*
X131067191Y-67545530D01*
X130500000Y-67545530D01*
X130500000Y-67022766D01*
X131068826Y-67022766D01*
X131075745Y-67026000D01*
X132067885Y-67026000D01*
X132083124Y-67021525D01*
X132084329Y-67020135D01*
X132086000Y-67012452D01*
X132086000Y-67007885D01*
X132594000Y-67007885D01*
X132598475Y-67023124D01*
X132599865Y-67024329D01*
X132607548Y-67026000D01*
X133598192Y-67026000D01*
X133609206Y-67022766D01*
X134998826Y-67022766D01*
X135005745Y-67026000D01*
X136247885Y-67026000D01*
X136263124Y-67021525D01*
X136264329Y-67020135D01*
X136266000Y-67012452D01*
X136266000Y-67007885D01*
X136774000Y-67007885D01*
X136778475Y-67023124D01*
X136779865Y-67024329D01*
X136787548Y-67026000D01*
X138028192Y-67026000D01*
X138041723Y-67022027D01*
X138042809Y-67014470D01*
X138007573Y-66898313D01*
X138002859Y-66886931D01*
X137915096Y-66722739D01*
X137908245Y-66712486D01*
X137790139Y-66568573D01*
X137781427Y-66559861D01*
X137637514Y-66441755D01*
X137627261Y-66434904D01*
X137463069Y-66347141D01*
X137451687Y-66342427D01*
X137273532Y-66288384D01*
X137261438Y-66285978D01*
X137122598Y-66272303D01*
X137116426Y-66272000D01*
X136792115Y-66272000D01*
X136776876Y-66276475D01*
X136775671Y-66277865D01*
X136774000Y-66285548D01*
X136774000Y-67007885D01*
X136266000Y-67007885D01*
X136266000Y-66290115D01*
X136261525Y-66274876D01*
X136260135Y-66273671D01*
X136252452Y-66272000D01*
X135923574Y-66272000D01*
X135917402Y-66272303D01*
X135778562Y-66285978D01*
X135766468Y-66288384D01*
X135588313Y-66342427D01*
X135576931Y-66347141D01*
X135412739Y-66434904D01*
X135402486Y-66441755D01*
X135258573Y-66559861D01*
X135249861Y-66568573D01*
X135131755Y-66712486D01*
X135124904Y-66722739D01*
X135037141Y-66886931D01*
X135032427Y-66898313D01*
X134998952Y-67008663D01*
X134998826Y-67022766D01*
X133609206Y-67022766D01*
X133611723Y-67022027D01*
X133612809Y-67014470D01*
X133577573Y-66898313D01*
X133572859Y-66886931D01*
X133485096Y-66722739D01*
X133478245Y-66712486D01*
X133360139Y-66568573D01*
X133351427Y-66559861D01*
X133207514Y-66441755D01*
X133197261Y-66434904D01*
X133033069Y-66347141D01*
X133021687Y-66342427D01*
X132843532Y-66288384D01*
X132831438Y-66285978D01*
X132692598Y-66272303D01*
X132686426Y-66272000D01*
X132612115Y-66272000D01*
X132596876Y-66276475D01*
X132595671Y-66277865D01*
X132594000Y-66285548D01*
X132594000Y-67007885D01*
X132086000Y-67007885D01*
X132086000Y-66290115D01*
X132081525Y-66274876D01*
X132080135Y-66273671D01*
X132072452Y-66272000D01*
X131993574Y-66272000D01*
X131987402Y-66272303D01*
X131848562Y-66285978D01*
X131836468Y-66288384D01*
X131658313Y-66342427D01*
X131646931Y-66347141D01*
X131482739Y-66434904D01*
X131472486Y-66441755D01*
X131328573Y-66559861D01*
X131319861Y-66568573D01*
X131201755Y-66712486D01*
X131194904Y-66722739D01*
X131107141Y-66886931D01*
X131102427Y-66898313D01*
X131068952Y-67008663D01*
X131068826Y-67022766D01*
X130500000Y-67022766D01*
X130500000Y-61739500D01*
X130520002Y-61671379D01*
X130573658Y-61624886D01*
X130626000Y-61613500D01*
X131037585Y-61613500D01*
X131105706Y-61633502D01*
G37*
%TD.AperFunction*%
%TD*%
%TA.AperFunction,Conductor*%
%TO.N,GNDA*%
G36*
X131327281Y-50520002D02*
G01*
X131373774Y-50573658D01*
X131383878Y-50643932D01*
X131354384Y-50708512D01*
X131346344Y-50716967D01*
X131225694Y-50832601D01*
X131218654Y-50840599D01*
X131085534Y-51020589D01*
X131079941Y-51029671D01*
X130979156Y-51229566D01*
X130975177Y-51239469D01*
X130909626Y-51453517D01*
X130907379Y-51463944D01*
X130878944Y-51685996D01*
X130878491Y-51696652D01*
X130887993Y-51920308D01*
X130889349Y-51930900D01*
X130936512Y-52149738D01*
X130939634Y-52159934D01*
X131023102Y-52367653D01*
X131027909Y-52377187D01*
X131145279Y-52567808D01*
X131151621Y-52576384D01*
X131299524Y-52744433D01*
X131307228Y-52751817D01*
X131481400Y-52892451D01*
X131490235Y-52898423D01*
X131685683Y-53007607D01*
X131695387Y-53011993D01*
X131906477Y-53086576D01*
X131916789Y-53089261D01*
X132137447Y-53127097D01*
X132148063Y-53128000D01*
X132315869Y-53128000D01*
X132321190Y-53127774D01*
X132488394Y-53113543D01*
X132498905Y-53111740D01*
X132715546Y-53055332D01*
X132725600Y-53051780D01*
X132929603Y-52959565D01*
X132938904Y-52954368D01*
X133124378Y-52829009D01*
X133132687Y-52822300D01*
X133294301Y-52667406D01*
X133301346Y-52659401D01*
X133434466Y-52479411D01*
X133440059Y-52470329D01*
X133540844Y-52270434D01*
X133544823Y-52260531D01*
X133610374Y-52046483D01*
X133612621Y-52036056D01*
X133641056Y-51814004D01*
X133641509Y-51803347D01*
X133632007Y-51579692D01*
X133630651Y-51569100D01*
X133583488Y-51350262D01*
X133580366Y-51340066D01*
X133496898Y-51132347D01*
X133492091Y-51122813D01*
X133374721Y-50932192D01*
X133368379Y-50923616D01*
X133220476Y-50755567D01*
X133212779Y-50748190D01*
X133182861Y-50724033D01*
X133142427Y-50665676D01*
X133139961Y-50594722D01*
X133176247Y-50533699D01*
X133239765Y-50501980D01*
X133262017Y-50500000D01*
X136339160Y-50500000D01*
X136407281Y-50520002D01*
X136453774Y-50573658D01*
X136463878Y-50643932D01*
X136434384Y-50708512D01*
X136426344Y-50716967D01*
X136305694Y-50832601D01*
X136298654Y-50840599D01*
X136165534Y-51020589D01*
X136159941Y-51029671D01*
X136059156Y-51229566D01*
X136055177Y-51239469D01*
X135989626Y-51453517D01*
X135987379Y-51463944D01*
X135958944Y-51685996D01*
X135958491Y-51696652D01*
X135967993Y-51920308D01*
X135969349Y-51930900D01*
X136016512Y-52149738D01*
X136019634Y-52159934D01*
X136103102Y-52367653D01*
X136107909Y-52377187D01*
X136225279Y-52567808D01*
X136231621Y-52576384D01*
X136379524Y-52744433D01*
X136387228Y-52751817D01*
X136561400Y-52892451D01*
X136570235Y-52898423D01*
X136765683Y-53007607D01*
X136775387Y-53011993D01*
X136986477Y-53086576D01*
X136996789Y-53089261D01*
X137217447Y-53127097D01*
X137228063Y-53128000D01*
X137395869Y-53128000D01*
X137401190Y-53127774D01*
X137568394Y-53113543D01*
X137578905Y-53111740D01*
X137795546Y-53055332D01*
X137805600Y-53051780D01*
X138009603Y-52959565D01*
X138018904Y-52954368D01*
X138204378Y-52829009D01*
X138212687Y-52822300D01*
X138374301Y-52667406D01*
X138381346Y-52659401D01*
X138514466Y-52479411D01*
X138520059Y-52470329D01*
X138620844Y-52270434D01*
X138624823Y-52260531D01*
X138690374Y-52046483D01*
X138692621Y-52036056D01*
X138721056Y-51814004D01*
X138721509Y-51803347D01*
X138712007Y-51579692D01*
X138710651Y-51569100D01*
X138663488Y-51350262D01*
X138660366Y-51340066D01*
X138576898Y-51132347D01*
X138572091Y-51122813D01*
X138454721Y-50932192D01*
X138448379Y-50923616D01*
X138300476Y-50755567D01*
X138292779Y-50748190D01*
X138262861Y-50724033D01*
X138222427Y-50665676D01*
X138219961Y-50594722D01*
X138256247Y-50533699D01*
X138319765Y-50501980D01*
X138342017Y-50500000D01*
X151725951Y-50500000D01*
X151794072Y-50520002D01*
X151840565Y-50573658D01*
X151850669Y-50643932D01*
X151821175Y-50708512D01*
X151799716Y-50727546D01*
X151799784Y-50727630D01*
X151797977Y-50729090D01*
X151796507Y-50730393D01*
X151795619Y-50730993D01*
X151787313Y-50737700D01*
X151625699Y-50892594D01*
X151618654Y-50900599D01*
X151485534Y-51080589D01*
X151479941Y-51089671D01*
X151379156Y-51289566D01*
X151375177Y-51299469D01*
X151309626Y-51513517D01*
X151307379Y-51523944D01*
X151278944Y-51745996D01*
X151278491Y-51756652D01*
X151287993Y-51980308D01*
X151289349Y-51990900D01*
X151336512Y-52209738D01*
X151339634Y-52219934D01*
X151423102Y-52427653D01*
X151427909Y-52437187D01*
X151545279Y-52627808D01*
X151551621Y-52636384D01*
X151699524Y-52804433D01*
X151707228Y-52811817D01*
X151881400Y-52952451D01*
X151890235Y-52958423D01*
X152085683Y-53067607D01*
X152095387Y-53071993D01*
X152306477Y-53146576D01*
X152316789Y-53149261D01*
X152537447Y-53187097D01*
X152548063Y-53188000D01*
X152715869Y-53188000D01*
X152721190Y-53187774D01*
X152888394Y-53173543D01*
X152898905Y-53171740D01*
X153115546Y-53115332D01*
X153125600Y-53111780D01*
X153329603Y-53019565D01*
X153338904Y-53014368D01*
X153524378Y-52889009D01*
X153532687Y-52882300D01*
X153694301Y-52727406D01*
X153701346Y-52719401D01*
X153834466Y-52539411D01*
X153840059Y-52530329D01*
X153940844Y-52330434D01*
X153944823Y-52320531D01*
X154010374Y-52106483D01*
X154012621Y-52096056D01*
X154041056Y-51874004D01*
X154041509Y-51863347D01*
X154032007Y-51639692D01*
X154030651Y-51629100D01*
X153983488Y-51410262D01*
X153980366Y-51400066D01*
X153896898Y-51192347D01*
X153892091Y-51182813D01*
X153774721Y-50992192D01*
X153768379Y-50983616D01*
X153620476Y-50815567D01*
X153612772Y-50808183D01*
X153508553Y-50724032D01*
X153468119Y-50665675D01*
X153465653Y-50594721D01*
X153501940Y-50533698D01*
X153565457Y-50501980D01*
X153587709Y-50500000D01*
X156805951Y-50500000D01*
X156874072Y-50520002D01*
X156920565Y-50573658D01*
X156930669Y-50643932D01*
X156901175Y-50708512D01*
X156879716Y-50727546D01*
X156879784Y-50727630D01*
X156877977Y-50729090D01*
X156876507Y-50730393D01*
X156875619Y-50730993D01*
X156867313Y-50737700D01*
X156705699Y-50892594D01*
X156698654Y-50900599D01*
X156565534Y-51080589D01*
X156559941Y-51089671D01*
X156459156Y-51289566D01*
X156455177Y-51299469D01*
X156389626Y-51513517D01*
X156387379Y-51523944D01*
X156358944Y-51745996D01*
X156358491Y-51756652D01*
X156367993Y-51980308D01*
X156369349Y-51990900D01*
X156416512Y-52209738D01*
X156419634Y-52219934D01*
X156503102Y-52427653D01*
X156507909Y-52437187D01*
X156625279Y-52627808D01*
X156631621Y-52636384D01*
X156779524Y-52804433D01*
X156787228Y-52811817D01*
X156961400Y-52952451D01*
X156970235Y-52958423D01*
X157165683Y-53067607D01*
X157175387Y-53071993D01*
X157386477Y-53146576D01*
X157396789Y-53149261D01*
X157617447Y-53187097D01*
X157628063Y-53188000D01*
X157795869Y-53188000D01*
X157801190Y-53187774D01*
X157968394Y-53173543D01*
X157978905Y-53171740D01*
X158195546Y-53115332D01*
X158205600Y-53111780D01*
X158409603Y-53019565D01*
X158418904Y-53014368D01*
X158604378Y-52889009D01*
X158612687Y-52882300D01*
X158774301Y-52727406D01*
X158781346Y-52719401D01*
X158914466Y-52539411D01*
X158920059Y-52530329D01*
X159020844Y-52330434D01*
X159024823Y-52320531D01*
X159090374Y-52106483D01*
X159092621Y-52096056D01*
X159121056Y-51874004D01*
X159121509Y-51863347D01*
X159112007Y-51639692D01*
X159110651Y-51629100D01*
X159063488Y-51410262D01*
X159060366Y-51400066D01*
X158976898Y-51192347D01*
X158972091Y-51182813D01*
X158854721Y-50992192D01*
X158848379Y-50983616D01*
X158700476Y-50815567D01*
X158692772Y-50808183D01*
X158588553Y-50724032D01*
X158548119Y-50665675D01*
X158545653Y-50594721D01*
X158581940Y-50533698D01*
X158645457Y-50501980D01*
X158667709Y-50500000D01*
X159374000Y-50500000D01*
X159442121Y-50520002D01*
X159488614Y-50573658D01*
X159500000Y-50626000D01*
X159500000Y-139374000D01*
X159479998Y-139442121D01*
X159426342Y-139488614D01*
X159374000Y-139500000D01*
X139700000Y-139500000D01*
X139700000Y-132300000D01*
X139645235Y-132300000D01*
X139645155Y-132174589D01*
X139656542Y-132122167D01*
X139670827Y-132090888D01*
X139670829Y-132090882D01*
X139672698Y-132086790D01*
X139692700Y-132018669D01*
X139713500Y-131874000D01*
X139713500Y-127828638D01*
X150151500Y-127828638D01*
X150158011Y-127889201D01*
X150209111Y-128026204D01*
X150296739Y-128143261D01*
X150413796Y-128230889D01*
X150550799Y-128281989D01*
X150587705Y-128285957D01*
X150608012Y-128288140D01*
X150608015Y-128288140D01*
X150611362Y-128288500D01*
X152308638Y-128288500D01*
X152311985Y-128288140D01*
X152311988Y-128288140D01*
X152332295Y-128285957D01*
X152369201Y-128281989D01*
X152506204Y-128230889D01*
X152623261Y-128143261D01*
X152710889Y-128026204D01*
X152761989Y-127889201D01*
X152768500Y-127828638D01*
X152768500Y-126980000D01*
X153646502Y-126980000D01*
X153666457Y-127208087D01*
X153725716Y-127429243D01*
X153728039Y-127434224D01*
X153728039Y-127434225D01*
X153820151Y-127631762D01*
X153820154Y-127631767D01*
X153822477Y-127636749D01*
X153953802Y-127824300D01*
X154115700Y-127986198D01*
X154120208Y-127989355D01*
X154120211Y-127989357D01*
X154160779Y-128017763D01*
X154303251Y-128117523D01*
X154308233Y-128119846D01*
X154308238Y-128119849D01*
X154505775Y-128211961D01*
X154510757Y-128214284D01*
X154516065Y-128215706D01*
X154516067Y-128215707D01*
X154726598Y-128272119D01*
X154726600Y-128272119D01*
X154731913Y-128273543D01*
X154960000Y-128293498D01*
X155188087Y-128273543D01*
X155193400Y-128272119D01*
X155193402Y-128272119D01*
X155403933Y-128215707D01*
X155403935Y-128215706D01*
X155409243Y-128214284D01*
X155414225Y-128211961D01*
X155611762Y-128119849D01*
X155611767Y-128119846D01*
X155616749Y-128117523D01*
X155759221Y-128017763D01*
X155799789Y-127989357D01*
X155799792Y-127989355D01*
X155804300Y-127986198D01*
X155966198Y-127824300D01*
X156097523Y-127636749D01*
X156099846Y-127631767D01*
X156099849Y-127631762D01*
X156191961Y-127434225D01*
X156191961Y-127434224D01*
X156194284Y-127429243D01*
X156253543Y-127208087D01*
X156273498Y-126980000D01*
X156253543Y-126751913D01*
X156194284Y-126530757D01*
X156191961Y-126525775D01*
X156099849Y-126328238D01*
X156099846Y-126328233D01*
X156097523Y-126323251D01*
X155966198Y-126135700D01*
X155804300Y-125973802D01*
X155799792Y-125970645D01*
X155799789Y-125970643D01*
X155721611Y-125915902D01*
X155616749Y-125842477D01*
X155611767Y-125840154D01*
X155611762Y-125840151D01*
X155414225Y-125748039D01*
X155414224Y-125748039D01*
X155409243Y-125745716D01*
X155403935Y-125744294D01*
X155403933Y-125744293D01*
X155193402Y-125687881D01*
X155193400Y-125687881D01*
X155188087Y-125686457D01*
X154960000Y-125666502D01*
X154731913Y-125686457D01*
X154726600Y-125687881D01*
X154726598Y-125687881D01*
X154516067Y-125744293D01*
X154516065Y-125744294D01*
X154510757Y-125745716D01*
X154505776Y-125748039D01*
X154505775Y-125748039D01*
X154308238Y-125840151D01*
X154308233Y-125840154D01*
X154303251Y-125842477D01*
X154198389Y-125915902D01*
X154120211Y-125970643D01*
X154120208Y-125970645D01*
X154115700Y-125973802D01*
X153953802Y-126135700D01*
X153822477Y-126323251D01*
X153820154Y-126328233D01*
X153820151Y-126328238D01*
X153728039Y-126525775D01*
X153725716Y-126530757D01*
X153666457Y-126751913D01*
X153646502Y-126980000D01*
X152768500Y-126980000D01*
X152768500Y-126131362D01*
X152761989Y-126070799D01*
X152710889Y-125933796D01*
X152623261Y-125816739D01*
X152506204Y-125729111D01*
X152369201Y-125678011D01*
X152332295Y-125674043D01*
X152311988Y-125671860D01*
X152311985Y-125671860D01*
X152308638Y-125671500D01*
X150611362Y-125671500D01*
X150608015Y-125671860D01*
X150608012Y-125671860D01*
X150587705Y-125674043D01*
X150550799Y-125678011D01*
X150413796Y-125729111D01*
X150296739Y-125816739D01*
X150209111Y-125933796D01*
X150158011Y-126070799D01*
X150151500Y-126131362D01*
X150151500Y-127828638D01*
X139713500Y-127828638D01*
X139713500Y-119475038D01*
X139713504Y-119475000D01*
X139713500Y-119474962D01*
X139713500Y-115150038D01*
X139713504Y-115150000D01*
X139713500Y-115149962D01*
X139713500Y-109225000D01*
X152161496Y-109225000D01*
X152181458Y-109414928D01*
X152240473Y-109596556D01*
X152335960Y-109761944D01*
X152463747Y-109903866D01*
X152618248Y-110016118D01*
X152624276Y-110018802D01*
X152624278Y-110018803D01*
X152786681Y-110091109D01*
X152792712Y-110093794D01*
X152886112Y-110113647D01*
X152973056Y-110132128D01*
X152973061Y-110132128D01*
X152979513Y-110133500D01*
X153170487Y-110133500D01*
X153176939Y-110132128D01*
X153176944Y-110132128D01*
X153263887Y-110113647D01*
X153357288Y-110093794D01*
X153363319Y-110091109D01*
X153525722Y-110018803D01*
X153525724Y-110018802D01*
X153531752Y-110016118D01*
X153686253Y-109903866D01*
X153814040Y-109761944D01*
X153909527Y-109596556D01*
X153968542Y-109414928D01*
X153988504Y-109225000D01*
X153968542Y-109035072D01*
X153909527Y-108853444D01*
X153814040Y-108688056D01*
X153686253Y-108546134D01*
X153531752Y-108433882D01*
X153525724Y-108431198D01*
X153525722Y-108431197D01*
X153363319Y-108358891D01*
X153363318Y-108358891D01*
X153357288Y-108356206D01*
X153263888Y-108336353D01*
X153176944Y-108317872D01*
X153176939Y-108317872D01*
X153170487Y-108316500D01*
X152979513Y-108316500D01*
X152973061Y-108317872D01*
X152973056Y-108317872D01*
X152886112Y-108336353D01*
X152792712Y-108356206D01*
X152786682Y-108358891D01*
X152786681Y-108358891D01*
X152624278Y-108431197D01*
X152624276Y-108431198D01*
X152618248Y-108433882D01*
X152463747Y-108546134D01*
X152335960Y-108688056D01*
X152240473Y-108853444D01*
X152181458Y-109035072D01*
X152161496Y-109225000D01*
X139713500Y-109225000D01*
X139713500Y-104300000D01*
X146486496Y-104300000D01*
X146506458Y-104489928D01*
X146565473Y-104671556D01*
X146660960Y-104836944D01*
X146788747Y-104978866D01*
X146943248Y-105091118D01*
X146949276Y-105093802D01*
X146949278Y-105093803D01*
X147111681Y-105166109D01*
X147117712Y-105168794D01*
X147211113Y-105188647D01*
X147298056Y-105207128D01*
X147298061Y-105207128D01*
X147304513Y-105208500D01*
X147495487Y-105208500D01*
X147501939Y-105207128D01*
X147501944Y-105207128D01*
X147588887Y-105188647D01*
X147682288Y-105168794D01*
X147688319Y-105166109D01*
X147850722Y-105093803D01*
X147850724Y-105093802D01*
X147856752Y-105091118D01*
X148011253Y-104978866D01*
X148139040Y-104836944D01*
X148234527Y-104671556D01*
X148293542Y-104489928D01*
X148313504Y-104300000D01*
X148293542Y-104110072D01*
X148234527Y-103928444D01*
X148139040Y-103763056D01*
X148011253Y-103621134D01*
X147856752Y-103508882D01*
X147850724Y-103506198D01*
X147850722Y-103506197D01*
X147688319Y-103433891D01*
X147688318Y-103433891D01*
X147682288Y-103431206D01*
X147588888Y-103411353D01*
X147501944Y-103392872D01*
X147501939Y-103392872D01*
X147495487Y-103391500D01*
X147304513Y-103391500D01*
X147298061Y-103392872D01*
X147298056Y-103392872D01*
X147211112Y-103411353D01*
X147117712Y-103431206D01*
X147111682Y-103433891D01*
X147111681Y-103433891D01*
X146949278Y-103506197D01*
X146949276Y-103506198D01*
X146943248Y-103508882D01*
X146788747Y-103621134D01*
X146660960Y-103763056D01*
X146565473Y-103928444D01*
X146506458Y-104110072D01*
X146486496Y-104300000D01*
X139713500Y-104300000D01*
X139713500Y-86250000D01*
X149186496Y-86250000D01*
X149206458Y-86439928D01*
X149265473Y-86621556D01*
X149360960Y-86786944D01*
X149488747Y-86928866D01*
X149643248Y-87041118D01*
X149649276Y-87043802D01*
X149649278Y-87043803D01*
X149811681Y-87116109D01*
X149817712Y-87118794D01*
X149911112Y-87138647D01*
X149998056Y-87157128D01*
X149998061Y-87157128D01*
X150004513Y-87158500D01*
X150195487Y-87158500D01*
X150201939Y-87157128D01*
X150201944Y-87157128D01*
X150288888Y-87138647D01*
X150382288Y-87118794D01*
X150388319Y-87116109D01*
X150550722Y-87043803D01*
X150550724Y-87043802D01*
X150556752Y-87041118D01*
X150711253Y-86928866D01*
X150839040Y-86786944D01*
X150934527Y-86621556D01*
X150993542Y-86439928D01*
X151013504Y-86250000D01*
X150993542Y-86060072D01*
X150934527Y-85878444D01*
X150839040Y-85713056D01*
X150711253Y-85571134D01*
X150556752Y-85458882D01*
X150550724Y-85456198D01*
X150550722Y-85456197D01*
X150388319Y-85383891D01*
X150388318Y-85383891D01*
X150382288Y-85381206D01*
X150288887Y-85361353D01*
X150201944Y-85342872D01*
X150201939Y-85342872D01*
X150195487Y-85341500D01*
X150004513Y-85341500D01*
X149998061Y-85342872D01*
X149998056Y-85342872D01*
X149911113Y-85361353D01*
X149817712Y-85381206D01*
X149811682Y-85383891D01*
X149811681Y-85383891D01*
X149649278Y-85456197D01*
X149649276Y-85456198D01*
X149643248Y-85458882D01*
X149488747Y-85571134D01*
X149360960Y-85713056D01*
X149265473Y-85878444D01*
X149206458Y-86060072D01*
X149186496Y-86250000D01*
X139713500Y-86250000D01*
X139713500Y-83126000D01*
X139713140Y-83122649D01*
X139702128Y-83020215D01*
X139702127Y-83020208D01*
X139701766Y-83016851D01*
X139690380Y-82964509D01*
X139655710Y-82860343D01*
X139651449Y-82853712D01*
X139633762Y-82826190D01*
X139613760Y-82758150D01*
X139611690Y-79500000D01*
X145736496Y-79500000D01*
X145756458Y-79689928D01*
X145815473Y-79871556D01*
X145910960Y-80036944D01*
X146038747Y-80178866D01*
X146193248Y-80291118D01*
X146199276Y-80293802D01*
X146199278Y-80293803D01*
X146215194Y-80300889D01*
X146367712Y-80368794D01*
X146461113Y-80388647D01*
X146548056Y-80407128D01*
X146548061Y-80407128D01*
X146554513Y-80408500D01*
X146745487Y-80408500D01*
X146751939Y-80407128D01*
X146751944Y-80407128D01*
X146838887Y-80388647D01*
X146932288Y-80368794D01*
X147084806Y-80300889D01*
X147100722Y-80293803D01*
X147100724Y-80293802D01*
X147106752Y-80291118D01*
X147261253Y-80178866D01*
X147389040Y-80036944D01*
X147484527Y-79871556D01*
X147543542Y-79689928D01*
X147563504Y-79500000D01*
X147543542Y-79310072D01*
X147484527Y-79128444D01*
X147389040Y-78963056D01*
X147261253Y-78821134D01*
X147106752Y-78708882D01*
X147100724Y-78706198D01*
X147100722Y-78706197D01*
X146938319Y-78633891D01*
X146938318Y-78633891D01*
X146932288Y-78631206D01*
X146838887Y-78611353D01*
X146751944Y-78592872D01*
X146751939Y-78592872D01*
X146745487Y-78591500D01*
X146554513Y-78591500D01*
X146548061Y-78592872D01*
X146548056Y-78592872D01*
X146461113Y-78611353D01*
X146367712Y-78631206D01*
X146361682Y-78633891D01*
X146361681Y-78633891D01*
X146199278Y-78706197D01*
X146199276Y-78706198D01*
X146193248Y-78708882D01*
X146038747Y-78821134D01*
X145910960Y-78963056D01*
X145815473Y-79128444D01*
X145756458Y-79310072D01*
X145736496Y-79500000D01*
X139611690Y-79500000D01*
X139600012Y-61118117D01*
X139600012Y-61118115D01*
X139600000Y-61100000D01*
X130626000Y-61100000D01*
X130557879Y-61079998D01*
X130511386Y-61026342D01*
X130500000Y-60974000D01*
X130500000Y-56776652D01*
X130878491Y-56776652D01*
X130887993Y-57000308D01*
X130889349Y-57010900D01*
X130936512Y-57229738D01*
X130939634Y-57239934D01*
X131023102Y-57447653D01*
X131027909Y-57457187D01*
X131145279Y-57647808D01*
X131151621Y-57656384D01*
X131299524Y-57824433D01*
X131307228Y-57831817D01*
X131481400Y-57972451D01*
X131490235Y-57978423D01*
X131685683Y-58087607D01*
X131695387Y-58091993D01*
X131906477Y-58166576D01*
X131916789Y-58169261D01*
X132137447Y-58207097D01*
X132148063Y-58208000D01*
X132315869Y-58208000D01*
X132321190Y-58207774D01*
X132488394Y-58193543D01*
X132498905Y-58191740D01*
X132715546Y-58135332D01*
X132725600Y-58131780D01*
X132929603Y-58039565D01*
X132938904Y-58034368D01*
X133124378Y-57909009D01*
X133132687Y-57902300D01*
X133294301Y-57747406D01*
X133301346Y-57739401D01*
X133434466Y-57559411D01*
X133440059Y-57550329D01*
X133540844Y-57350434D01*
X133544823Y-57340531D01*
X133610374Y-57126483D01*
X133612621Y-57116056D01*
X133641056Y-56894004D01*
X133641509Y-56883347D01*
X133636976Y-56776652D01*
X135958491Y-56776652D01*
X135967993Y-57000308D01*
X135969349Y-57010900D01*
X136016512Y-57229738D01*
X136019634Y-57239934D01*
X136103102Y-57447653D01*
X136107909Y-57457187D01*
X136225279Y-57647808D01*
X136231621Y-57656384D01*
X136379524Y-57824433D01*
X136387228Y-57831817D01*
X136561400Y-57972451D01*
X136570235Y-57978423D01*
X136765683Y-58087607D01*
X136775387Y-58091993D01*
X136986477Y-58166576D01*
X136996789Y-58169261D01*
X137217447Y-58207097D01*
X137228063Y-58208000D01*
X137395869Y-58208000D01*
X137401190Y-58207774D01*
X137568394Y-58193543D01*
X137578905Y-58191740D01*
X137795546Y-58135332D01*
X137805600Y-58131780D01*
X138009603Y-58039565D01*
X138018904Y-58034368D01*
X138204378Y-57909009D01*
X138212687Y-57902300D01*
X138374301Y-57747406D01*
X138381346Y-57739401D01*
X138514466Y-57559411D01*
X138520059Y-57550329D01*
X138620844Y-57350434D01*
X138624823Y-57340531D01*
X138690374Y-57126483D01*
X138692621Y-57116056D01*
X138721056Y-56894004D01*
X138721509Y-56883347D01*
X138719525Y-56836652D01*
X151278491Y-56836652D01*
X151287993Y-57060308D01*
X151289349Y-57070900D01*
X151336512Y-57289738D01*
X151339634Y-57299934D01*
X151423102Y-57507653D01*
X151427909Y-57517187D01*
X151545279Y-57707808D01*
X151551621Y-57716384D01*
X151699524Y-57884433D01*
X151707228Y-57891817D01*
X151881400Y-58032451D01*
X151890235Y-58038423D01*
X152085683Y-58147607D01*
X152095387Y-58151993D01*
X152306477Y-58226576D01*
X152316789Y-58229261D01*
X152537447Y-58267097D01*
X152548063Y-58268000D01*
X152715869Y-58268000D01*
X152721190Y-58267774D01*
X152888394Y-58253543D01*
X152898905Y-58251740D01*
X153115546Y-58195332D01*
X153125600Y-58191780D01*
X153329603Y-58099565D01*
X153338904Y-58094368D01*
X153524378Y-57969009D01*
X153532687Y-57962300D01*
X153694301Y-57807406D01*
X153701346Y-57799401D01*
X153834466Y-57619411D01*
X153840059Y-57610329D01*
X153940844Y-57410434D01*
X153944823Y-57400531D01*
X154010374Y-57186483D01*
X154012621Y-57176056D01*
X154041056Y-56954004D01*
X154041509Y-56943347D01*
X154036976Y-56836652D01*
X156358491Y-56836652D01*
X156367993Y-57060308D01*
X156369349Y-57070900D01*
X156416512Y-57289738D01*
X156419634Y-57299934D01*
X156503102Y-57507653D01*
X156507909Y-57517187D01*
X156625279Y-57707808D01*
X156631621Y-57716384D01*
X156779524Y-57884433D01*
X156787228Y-57891817D01*
X156961400Y-58032451D01*
X156970235Y-58038423D01*
X157165683Y-58147607D01*
X157175387Y-58151993D01*
X157386477Y-58226576D01*
X157396789Y-58229261D01*
X157617447Y-58267097D01*
X157628063Y-58268000D01*
X157795869Y-58268000D01*
X157801190Y-58267774D01*
X157968394Y-58253543D01*
X157978905Y-58251740D01*
X158195546Y-58195332D01*
X158205600Y-58191780D01*
X158409603Y-58099565D01*
X158418904Y-58094368D01*
X158604378Y-57969009D01*
X158612687Y-57962300D01*
X158774301Y-57807406D01*
X158781346Y-57799401D01*
X158914466Y-57619411D01*
X158920059Y-57610329D01*
X159020844Y-57410434D01*
X159024823Y-57400531D01*
X159090374Y-57186483D01*
X159092621Y-57176056D01*
X159121056Y-56954004D01*
X159121509Y-56943347D01*
X159112007Y-56719692D01*
X159110651Y-56709100D01*
X159063488Y-56490262D01*
X159060366Y-56480066D01*
X158976898Y-56272347D01*
X158972091Y-56262813D01*
X158854721Y-56072192D01*
X158848379Y-56063616D01*
X158700476Y-55895567D01*
X158692772Y-55888183D01*
X158518600Y-55747549D01*
X158509765Y-55741577D01*
X158314317Y-55632393D01*
X158304613Y-55628007D01*
X158093523Y-55553424D01*
X158083211Y-55550739D01*
X157862553Y-55512903D01*
X157851937Y-55512000D01*
X157684131Y-55512000D01*
X157678810Y-55512226D01*
X157511606Y-55526457D01*
X157501095Y-55528260D01*
X157284454Y-55584668D01*
X157274400Y-55588220D01*
X157070397Y-55680435D01*
X157061096Y-55685632D01*
X156875622Y-55810991D01*
X156867313Y-55817700D01*
X156705699Y-55972594D01*
X156698654Y-55980599D01*
X156565534Y-56160589D01*
X156559941Y-56169671D01*
X156459156Y-56369566D01*
X156455177Y-56379469D01*
X156389626Y-56593517D01*
X156387379Y-56603944D01*
X156358944Y-56825996D01*
X156358491Y-56836652D01*
X154036976Y-56836652D01*
X154032007Y-56719692D01*
X154030651Y-56709100D01*
X153983488Y-56490262D01*
X153980366Y-56480066D01*
X153896898Y-56272347D01*
X153892091Y-56262813D01*
X153774721Y-56072192D01*
X153768379Y-56063616D01*
X153620476Y-55895567D01*
X153612772Y-55888183D01*
X153438600Y-55747549D01*
X153429765Y-55741577D01*
X153234317Y-55632393D01*
X153224613Y-55628007D01*
X153013523Y-55553424D01*
X153003211Y-55550739D01*
X152782553Y-55512903D01*
X152771937Y-55512000D01*
X152604131Y-55512000D01*
X152598810Y-55512226D01*
X152431606Y-55526457D01*
X152421095Y-55528260D01*
X152204454Y-55584668D01*
X152194400Y-55588220D01*
X151990397Y-55680435D01*
X151981096Y-55685632D01*
X151795622Y-55810991D01*
X151787313Y-55817700D01*
X151625699Y-55972594D01*
X151618654Y-55980599D01*
X151485534Y-56160589D01*
X151479941Y-56169671D01*
X151379156Y-56369566D01*
X151375177Y-56379469D01*
X151309626Y-56593517D01*
X151307379Y-56603944D01*
X151278944Y-56825996D01*
X151278491Y-56836652D01*
X138719525Y-56836652D01*
X138712007Y-56659692D01*
X138710651Y-56649100D01*
X138663488Y-56430262D01*
X138660366Y-56420066D01*
X138576898Y-56212347D01*
X138572091Y-56202813D01*
X138454721Y-56012192D01*
X138448379Y-56003616D01*
X138300476Y-55835567D01*
X138292772Y-55828183D01*
X138118600Y-55687549D01*
X138109765Y-55681577D01*
X137914317Y-55572393D01*
X137904613Y-55568007D01*
X137693523Y-55493424D01*
X137683211Y-55490739D01*
X137462553Y-55452903D01*
X137451937Y-55452000D01*
X137284131Y-55452000D01*
X137278810Y-55452226D01*
X137111606Y-55466457D01*
X137101095Y-55468260D01*
X136884454Y-55524668D01*
X136874400Y-55528220D01*
X136670397Y-55620435D01*
X136661096Y-55625632D01*
X136475622Y-55750991D01*
X136467313Y-55757700D01*
X136305699Y-55912594D01*
X136298654Y-55920599D01*
X136165534Y-56100589D01*
X136159941Y-56109671D01*
X136059156Y-56309566D01*
X136055177Y-56319469D01*
X135989626Y-56533517D01*
X135987379Y-56543944D01*
X135958944Y-56765996D01*
X135958491Y-56776652D01*
X133636976Y-56776652D01*
X133632007Y-56659692D01*
X133630651Y-56649100D01*
X133583488Y-56430262D01*
X133580366Y-56420066D01*
X133496898Y-56212347D01*
X133492091Y-56202813D01*
X133374721Y-56012192D01*
X133368379Y-56003616D01*
X133220476Y-55835567D01*
X133212772Y-55828183D01*
X133038600Y-55687549D01*
X133029765Y-55681577D01*
X132834317Y-55572393D01*
X132824613Y-55568007D01*
X132613523Y-55493424D01*
X132603211Y-55490739D01*
X132382553Y-55452903D01*
X132371937Y-55452000D01*
X132204131Y-55452000D01*
X132198810Y-55452226D01*
X132031606Y-55466457D01*
X132021095Y-55468260D01*
X131804454Y-55524668D01*
X131794400Y-55528220D01*
X131590397Y-55620435D01*
X131581096Y-55625632D01*
X131395622Y-55750991D01*
X131387313Y-55757700D01*
X131225699Y-55912594D01*
X131218654Y-55920599D01*
X131085534Y-56100589D01*
X131079941Y-56109671D01*
X130979156Y-56309566D01*
X130975177Y-56319469D01*
X130909626Y-56533517D01*
X130907379Y-56543944D01*
X130878944Y-56765996D01*
X130878491Y-56776652D01*
X130500000Y-56776652D01*
X130500000Y-54290000D01*
X133516616Y-54290000D01*
X133536113Y-54512857D01*
X133594014Y-54728943D01*
X133624317Y-54793928D01*
X133686231Y-54926705D01*
X133686234Y-54926710D01*
X133688557Y-54931692D01*
X133816871Y-55114943D01*
X133975057Y-55273129D01*
X133979565Y-55276286D01*
X133979568Y-55276288D01*
X134055180Y-55329232D01*
X134158308Y-55401443D01*
X134163290Y-55403766D01*
X134163295Y-55403769D01*
X134266177Y-55451743D01*
X134361057Y-55495986D01*
X134577143Y-55553887D01*
X134617401Y-55557409D01*
X134741449Y-55568262D01*
X134741458Y-55568262D01*
X134744174Y-55568500D01*
X134855826Y-55568500D01*
X134858542Y-55568262D01*
X134858551Y-55568262D01*
X134982599Y-55557409D01*
X135022857Y-55553887D01*
X135238943Y-55495986D01*
X135333823Y-55451743D01*
X135436705Y-55403769D01*
X135436710Y-55403766D01*
X135441692Y-55401443D01*
X135544820Y-55329232D01*
X135620432Y-55276288D01*
X135620435Y-55276286D01*
X135624943Y-55273129D01*
X135783129Y-55114943D01*
X135911443Y-54931692D01*
X135913766Y-54926710D01*
X135913769Y-54926705D01*
X135975683Y-54793928D01*
X136005986Y-54728943D01*
X136063887Y-54512857D01*
X136078135Y-54350000D01*
X153916616Y-54350000D01*
X153936113Y-54572857D01*
X153994014Y-54788943D01*
X153996339Y-54793928D01*
X154086231Y-54986705D01*
X154086234Y-54986710D01*
X154088557Y-54991692D01*
X154216871Y-55174943D01*
X154375057Y-55333129D01*
X154379565Y-55336286D01*
X154379568Y-55336288D01*
X154455928Y-55389756D01*
X154558308Y-55461443D01*
X154563290Y-55463766D01*
X154563295Y-55463769D01*
X154666177Y-55511743D01*
X154761057Y-55555986D01*
X154977143Y-55613887D01*
X155028879Y-55618413D01*
X155141449Y-55628262D01*
X155141458Y-55628262D01*
X155144174Y-55628500D01*
X155255826Y-55628500D01*
X155258542Y-55628262D01*
X155258551Y-55628262D01*
X155371121Y-55618413D01*
X155422857Y-55613887D01*
X155638943Y-55555986D01*
X155733823Y-55511743D01*
X155836705Y-55463769D01*
X155836710Y-55463766D01*
X155841692Y-55461443D01*
X155944072Y-55389756D01*
X156020432Y-55336288D01*
X156020435Y-55336286D01*
X156024943Y-55333129D01*
X156183129Y-55174943D01*
X156311443Y-54991692D01*
X156313766Y-54986710D01*
X156313769Y-54986705D01*
X156403661Y-54793928D01*
X156405986Y-54788943D01*
X156463887Y-54572857D01*
X156483384Y-54350000D01*
X156463887Y-54127143D01*
X156405986Y-53911057D01*
X156361743Y-53816177D01*
X156313769Y-53713295D01*
X156313766Y-53713290D01*
X156311443Y-53708308D01*
X156183129Y-53525057D01*
X156024943Y-53366871D01*
X156020435Y-53363714D01*
X156020432Y-53363712D01*
X155934743Y-53303712D01*
X155841692Y-53238557D01*
X155836710Y-53236234D01*
X155836705Y-53236231D01*
X155702268Y-53173543D01*
X155638943Y-53144014D01*
X155422857Y-53086113D01*
X155371121Y-53081587D01*
X155258551Y-53071738D01*
X155258542Y-53071738D01*
X155255826Y-53071500D01*
X155144174Y-53071500D01*
X155141458Y-53071738D01*
X155141449Y-53071738D01*
X155028879Y-53081587D01*
X154977143Y-53086113D01*
X154761057Y-53144014D01*
X154697732Y-53173543D01*
X154563295Y-53236231D01*
X154563290Y-53236234D01*
X154558308Y-53238557D01*
X154465257Y-53303712D01*
X154379568Y-53363712D01*
X154379565Y-53363714D01*
X154375057Y-53366871D01*
X154216871Y-53525057D01*
X154088557Y-53708308D01*
X154086234Y-53713290D01*
X154086231Y-53713295D01*
X154038257Y-53816177D01*
X153994014Y-53911057D01*
X153936113Y-54127143D01*
X153916616Y-54350000D01*
X136078135Y-54350000D01*
X136083384Y-54290000D01*
X136063887Y-54067143D01*
X136005986Y-53851057D01*
X135941747Y-53713295D01*
X135913769Y-53653295D01*
X135913766Y-53653290D01*
X135911443Y-53648308D01*
X135783129Y-53465057D01*
X135624943Y-53306871D01*
X135620435Y-53303714D01*
X135620432Y-53303712D01*
X135524059Y-53236231D01*
X135441692Y-53178557D01*
X135436710Y-53176234D01*
X135436705Y-53176231D01*
X135302268Y-53113543D01*
X135238943Y-53084014D01*
X135022857Y-53026113D01*
X134971121Y-53021587D01*
X134858551Y-53011738D01*
X134858542Y-53011738D01*
X134855826Y-53011500D01*
X134744174Y-53011500D01*
X134741458Y-53011738D01*
X134741449Y-53011738D01*
X134628879Y-53021587D01*
X134577143Y-53026113D01*
X134361057Y-53084014D01*
X134297732Y-53113543D01*
X134163295Y-53176231D01*
X134163290Y-53176234D01*
X134158308Y-53178557D01*
X134075941Y-53236231D01*
X133979568Y-53303712D01*
X133979565Y-53303714D01*
X133975057Y-53306871D01*
X133816871Y-53465057D01*
X133688557Y-53648308D01*
X133686234Y-53653290D01*
X133686231Y-53653295D01*
X133658253Y-53713295D01*
X133594014Y-53851057D01*
X133536113Y-54067143D01*
X133516616Y-54290000D01*
X130500000Y-54290000D01*
X130500000Y-50626000D01*
X130520002Y-50557879D01*
X130573658Y-50511386D01*
X130626000Y-50500000D01*
X131259160Y-50500000D01*
X131327281Y-50520002D01*
G37*
%TD.AperFunction*%
%TD*%
%TA.AperFunction,Conductor*%
%TO.N,GNDA*%
G36*
X139700000Y-139500000D02*
G01*
X130626000Y-139500000D01*
X130557879Y-139479998D01*
X130511386Y-139426342D01*
X130500000Y-139374000D01*
X130500000Y-132639500D01*
X130520002Y-132571379D01*
X130573658Y-132524886D01*
X130626000Y-132513500D01*
X131205717Y-132513500D01*
X131209876Y-132512942D01*
X131209882Y-132512942D01*
X131336809Y-132495925D01*
X131336814Y-132495924D01*
X131340976Y-132495366D01*
X131405012Y-132477881D01*
X131417277Y-132472698D01*
X131522696Y-132428147D01*
X131522695Y-132428147D01*
X131530725Y-132424754D01*
X131541509Y-132416106D01*
X131607165Y-132389091D01*
X131677003Y-132401860D01*
X131694399Y-132412463D01*
X131715986Y-132428147D01*
X131753923Y-132455710D01*
X131768248Y-132466118D01*
X131774276Y-132468802D01*
X131774278Y-132468803D01*
X131936681Y-132541109D01*
X131942712Y-132543794D01*
X132036113Y-132563647D01*
X132123056Y-132582128D01*
X132123061Y-132582128D01*
X132129513Y-132583500D01*
X132320487Y-132583500D01*
X132326939Y-132582128D01*
X132326944Y-132582128D01*
X132413887Y-132563647D01*
X132507288Y-132543794D01*
X132513319Y-132541109D01*
X132675722Y-132468803D01*
X132675724Y-132468802D01*
X132681752Y-132466118D01*
X132692653Y-132458198D01*
X132754457Y-132413295D01*
X132821325Y-132389436D01*
X132890477Y-132405517D01*
X132892471Y-132406719D01*
X132898544Y-132411982D01*
X133031493Y-132472698D01*
X133049145Y-132477881D01*
X133095291Y-132491431D01*
X133095295Y-132491432D01*
X133099614Y-132492700D01*
X133104063Y-132493340D01*
X133104069Y-132493341D01*
X133239836Y-132512861D01*
X133239841Y-132512861D01*
X133244283Y-132513500D01*
X136155717Y-132513500D01*
X136159876Y-132512942D01*
X136159882Y-132512942D01*
X136286809Y-132495925D01*
X136286814Y-132495924D01*
X136290976Y-132495366D01*
X136355012Y-132477881D01*
X136367277Y-132472698D01*
X136472696Y-132428147D01*
X136472695Y-132428147D01*
X136480725Y-132424754D01*
X136491509Y-132416106D01*
X136557165Y-132389091D01*
X136627003Y-132401860D01*
X136644399Y-132412463D01*
X136665986Y-132428147D01*
X136703923Y-132455710D01*
X136718248Y-132466118D01*
X136724276Y-132468802D01*
X136724278Y-132468803D01*
X136886681Y-132541109D01*
X136892712Y-132543794D01*
X136986113Y-132563647D01*
X137073056Y-132582128D01*
X137073061Y-132582128D01*
X137079513Y-132583500D01*
X137270487Y-132583500D01*
X137276939Y-132582128D01*
X137276944Y-132582128D01*
X137363887Y-132563647D01*
X137457288Y-132543794D01*
X137463319Y-132541109D01*
X137625722Y-132468803D01*
X137625724Y-132468802D01*
X137631752Y-132466118D01*
X137642653Y-132458198D01*
X137704457Y-132413295D01*
X137771325Y-132389436D01*
X137840477Y-132405517D01*
X137842471Y-132406719D01*
X137848544Y-132411982D01*
X137981493Y-132472698D01*
X137999145Y-132477881D01*
X138045291Y-132491431D01*
X138045295Y-132491432D01*
X138049614Y-132492700D01*
X138054063Y-132493340D01*
X138054069Y-132493341D01*
X138189836Y-132512861D01*
X138189841Y-132512861D01*
X138194283Y-132513500D01*
X139074000Y-132513500D01*
X139077346Y-132513140D01*
X139077351Y-132513140D01*
X139179785Y-132502128D01*
X139179792Y-132502127D01*
X139183149Y-132501766D01*
X139186450Y-132501048D01*
X139232210Y-132491094D01*
X139232215Y-132491093D01*
X139235491Y-132490380D01*
X139339657Y-132455710D01*
X139462612Y-132376692D01*
X139466007Y-132373750D01*
X139466018Y-132373742D01*
X139515603Y-132330776D01*
X139580183Y-132301283D01*
X139598115Y-132300000D01*
X139700000Y-132300000D01*
X139700000Y-139500000D01*
G37*
%TD.AperFunction*%
%TD*%
%TA.AperFunction,Conductor*%
%TO.N,GND*%
G36*
X139142121Y-83020002D02*
G01*
X139188614Y-83073658D01*
X139200000Y-83126000D01*
X139200000Y-131874000D01*
X139179998Y-131942121D01*
X139126342Y-131988614D01*
X139074000Y-132000000D01*
X138194283Y-132000000D01*
X138126162Y-131979998D01*
X138079669Y-131926342D01*
X138068973Y-131860830D01*
X138087814Y-131681565D01*
X138088504Y-131675000D01*
X138068542Y-131485072D01*
X138009527Y-131303444D01*
X137914040Y-131138056D01*
X137786253Y-130996134D01*
X137631752Y-130883882D01*
X137625724Y-130881198D01*
X137625722Y-130881197D01*
X137463319Y-130808891D01*
X137463318Y-130808891D01*
X137457288Y-130806206D01*
X137363888Y-130786353D01*
X137276944Y-130767872D01*
X137276939Y-130767872D01*
X137270487Y-130766500D01*
X137079513Y-130766500D01*
X137073061Y-130767872D01*
X137073056Y-130767872D01*
X136986112Y-130786353D01*
X136892712Y-130806206D01*
X136886682Y-130808891D01*
X136886681Y-130808891D01*
X136724278Y-130881197D01*
X136724276Y-130881198D01*
X136718248Y-130883882D01*
X136563747Y-130996134D01*
X136435960Y-131138056D01*
X136340473Y-131303444D01*
X136281458Y-131485072D01*
X136261496Y-131675000D01*
X136262186Y-131681565D01*
X136281027Y-131860830D01*
X136268255Y-131930668D01*
X136219753Y-131982515D01*
X136155717Y-132000000D01*
X133244283Y-132000000D01*
X133176162Y-131979998D01*
X133129669Y-131926342D01*
X133118973Y-131860830D01*
X133137814Y-131681565D01*
X133138504Y-131675000D01*
X133118542Y-131485072D01*
X133059527Y-131303444D01*
X132964040Y-131138056D01*
X132836253Y-130996134D01*
X132681752Y-130883882D01*
X132675724Y-130881198D01*
X132675722Y-130881197D01*
X132513319Y-130808891D01*
X132513318Y-130808891D01*
X132507288Y-130806206D01*
X132413888Y-130786353D01*
X132326944Y-130767872D01*
X132326939Y-130767872D01*
X132320487Y-130766500D01*
X132129513Y-130766500D01*
X132123061Y-130767872D01*
X132123056Y-130767872D01*
X132036112Y-130786353D01*
X131942712Y-130806206D01*
X131936682Y-130808891D01*
X131936681Y-130808891D01*
X131774278Y-130881197D01*
X131774276Y-130881198D01*
X131768248Y-130883882D01*
X131613747Y-130996134D01*
X131485960Y-131138056D01*
X131390473Y-131303444D01*
X131331458Y-131485072D01*
X131311496Y-131675000D01*
X131312186Y-131681565D01*
X131331027Y-131860830D01*
X131318255Y-131930668D01*
X131269753Y-131982515D01*
X131205717Y-132000000D01*
X130626000Y-132000000D01*
X130557879Y-131979998D01*
X130511386Y-131926342D01*
X130500000Y-131874000D01*
X130500000Y-121900000D01*
X131311496Y-121900000D01*
X131331458Y-122089928D01*
X131390473Y-122271556D01*
X131485960Y-122436944D01*
X131490378Y-122441851D01*
X131490379Y-122441852D01*
X131530980Y-122486944D01*
X131613747Y-122578866D01*
X131768248Y-122691118D01*
X131774276Y-122693802D01*
X131774278Y-122693803D01*
X131871833Y-122737237D01*
X131942712Y-122768794D01*
X132036112Y-122788647D01*
X132123056Y-122807128D01*
X132123061Y-122807128D01*
X132129513Y-122808500D01*
X132320487Y-122808500D01*
X132326939Y-122807128D01*
X132326944Y-122807128D01*
X132413888Y-122788647D01*
X132507288Y-122768794D01*
X132578167Y-122737237D01*
X132675722Y-122693803D01*
X132675724Y-122693802D01*
X132681752Y-122691118D01*
X132836253Y-122578866D01*
X132919020Y-122486944D01*
X132959621Y-122441852D01*
X132959622Y-122441851D01*
X132964040Y-122436944D01*
X133059527Y-122271556D01*
X133118542Y-122089928D01*
X133133249Y-121950000D01*
X136261496Y-121950000D01*
X136281458Y-122139928D01*
X136340473Y-122321556D01*
X136435960Y-122486944D01*
X136563747Y-122628866D01*
X136718248Y-122741118D01*
X136724276Y-122743802D01*
X136724278Y-122743803D01*
X136869591Y-122808500D01*
X136892712Y-122818794D01*
X136986113Y-122838647D01*
X137073056Y-122857128D01*
X137073061Y-122857128D01*
X137079513Y-122858500D01*
X137270487Y-122858500D01*
X137276939Y-122857128D01*
X137276944Y-122857128D01*
X137363887Y-122838647D01*
X137457288Y-122818794D01*
X137480409Y-122808500D01*
X137625722Y-122743803D01*
X137625724Y-122743802D01*
X137631752Y-122741118D01*
X137786253Y-122628866D01*
X137914040Y-122486944D01*
X138009527Y-122321556D01*
X138068542Y-122139928D01*
X138088504Y-121950000D01*
X138068542Y-121760072D01*
X138009527Y-121578444D01*
X137914040Y-121413056D01*
X137874169Y-121368774D01*
X137790675Y-121276045D01*
X137790674Y-121276044D01*
X137786253Y-121271134D01*
X137631752Y-121158882D01*
X137625724Y-121156198D01*
X137625722Y-121156197D01*
X137463319Y-121083891D01*
X137463318Y-121083891D01*
X137457288Y-121081206D01*
X137363887Y-121061353D01*
X137276944Y-121042872D01*
X137276939Y-121042872D01*
X137270487Y-121041500D01*
X137079513Y-121041500D01*
X137073061Y-121042872D01*
X137073056Y-121042872D01*
X136986113Y-121061353D01*
X136892712Y-121081206D01*
X136886682Y-121083891D01*
X136886681Y-121083891D01*
X136724278Y-121156197D01*
X136724276Y-121156198D01*
X136718248Y-121158882D01*
X136563747Y-121271134D01*
X136559326Y-121276044D01*
X136559325Y-121276045D01*
X136475832Y-121368774D01*
X136435960Y-121413056D01*
X136340473Y-121578444D01*
X136281458Y-121760072D01*
X136261496Y-121950000D01*
X133133249Y-121950000D01*
X133138504Y-121900000D01*
X133118542Y-121710072D01*
X133059527Y-121528444D01*
X132964040Y-121363056D01*
X132836253Y-121221134D01*
X132681752Y-121108882D01*
X132675724Y-121106198D01*
X132675722Y-121106197D01*
X132513319Y-121033891D01*
X132513318Y-121033891D01*
X132507288Y-121031206D01*
X132413888Y-121011353D01*
X132326944Y-120992872D01*
X132326939Y-120992872D01*
X132320487Y-120991500D01*
X132129513Y-120991500D01*
X132123061Y-120992872D01*
X132123056Y-120992872D01*
X132036112Y-121011353D01*
X131942712Y-121031206D01*
X131936682Y-121033891D01*
X131936681Y-121033891D01*
X131774278Y-121106197D01*
X131774276Y-121106198D01*
X131768248Y-121108882D01*
X131613747Y-121221134D01*
X131485960Y-121363056D01*
X131390473Y-121528444D01*
X131331458Y-121710072D01*
X131311496Y-121900000D01*
X130500000Y-121900000D01*
X130500000Y-116692500D01*
X132378996Y-116692500D01*
X132379686Y-116699065D01*
X132397779Y-116871206D01*
X132398958Y-116882428D01*
X132457973Y-117064056D01*
X132553460Y-117229444D01*
X132681247Y-117371366D01*
X132835748Y-117483618D01*
X132841776Y-117486302D01*
X132841778Y-117486303D01*
X133004181Y-117558609D01*
X133010212Y-117561294D01*
X133103613Y-117581147D01*
X133190556Y-117599628D01*
X133190561Y-117599628D01*
X133197013Y-117601000D01*
X133387987Y-117601000D01*
X133394439Y-117599628D01*
X133394444Y-117599628D01*
X133481387Y-117581147D01*
X133574788Y-117561294D01*
X133580819Y-117558609D01*
X133743222Y-117486303D01*
X133743224Y-117486302D01*
X133749252Y-117483618D01*
X133903753Y-117371366D01*
X134031540Y-117229444D01*
X134127027Y-117064056D01*
X134186042Y-116882428D01*
X134187222Y-116871206D01*
X134205314Y-116699065D01*
X134206004Y-116692500D01*
X134186042Y-116502572D01*
X134127027Y-116320944D01*
X134031540Y-116155556D01*
X134020932Y-116143774D01*
X133908175Y-116018545D01*
X133908174Y-116018544D01*
X133903753Y-116013634D01*
X133749252Y-115901382D01*
X133743224Y-115898698D01*
X133743222Y-115898697D01*
X133580819Y-115826391D01*
X133580818Y-115826391D01*
X133574788Y-115823706D01*
X133481387Y-115803853D01*
X133394444Y-115785372D01*
X133394439Y-115785372D01*
X133387987Y-115784000D01*
X133197013Y-115784000D01*
X133190561Y-115785372D01*
X133190556Y-115785372D01*
X133103613Y-115803853D01*
X133010212Y-115823706D01*
X133004182Y-115826391D01*
X133004181Y-115826391D01*
X132841778Y-115898697D01*
X132841776Y-115898698D01*
X132835748Y-115901382D01*
X132681247Y-116013634D01*
X132676826Y-116018544D01*
X132676825Y-116018545D01*
X132564069Y-116143774D01*
X132553460Y-116155556D01*
X132457973Y-116320944D01*
X132398958Y-116502572D01*
X132378996Y-116692500D01*
X130500000Y-116692500D01*
X130500000Y-115300000D01*
X135286496Y-115300000D01*
X135306458Y-115489928D01*
X135365473Y-115671556D01*
X135368776Y-115677278D01*
X135368777Y-115677279D01*
X135402686Y-115736010D01*
X135460960Y-115836944D01*
X135465378Y-115841851D01*
X135465379Y-115841852D01*
X135584325Y-115973955D01*
X135588747Y-115978866D01*
X135743248Y-116091118D01*
X135749276Y-116093802D01*
X135749278Y-116093803D01*
X135911681Y-116166109D01*
X135917712Y-116168794D01*
X136011112Y-116188647D01*
X136098056Y-116207128D01*
X136098061Y-116207128D01*
X136104513Y-116208500D01*
X136197898Y-116208500D01*
X136266019Y-116228502D01*
X136312512Y-116282158D01*
X136322616Y-116352432D01*
X136317731Y-116373436D01*
X136281458Y-116485072D01*
X136280768Y-116491633D01*
X136280768Y-116491635D01*
X136279619Y-116502572D01*
X136261496Y-116675000D01*
X136281458Y-116864928D01*
X136340473Y-117046556D01*
X136435960Y-117211944D01*
X136440378Y-117216851D01*
X136440379Y-117216852D01*
X136451717Y-117229444D01*
X136563747Y-117353866D01*
X136718248Y-117466118D01*
X136724276Y-117468802D01*
X136724278Y-117468803D01*
X136763584Y-117486303D01*
X136892712Y-117543794D01*
X136962411Y-117558609D01*
X137073056Y-117582128D01*
X137073061Y-117582128D01*
X137079513Y-117583500D01*
X137270487Y-117583500D01*
X137276939Y-117582128D01*
X137276944Y-117582128D01*
X137387589Y-117558609D01*
X137457288Y-117543794D01*
X137586416Y-117486303D01*
X137625722Y-117468803D01*
X137625724Y-117468802D01*
X137631752Y-117466118D01*
X137786253Y-117353866D01*
X137898283Y-117229444D01*
X137909621Y-117216852D01*
X137909622Y-117216851D01*
X137914040Y-117211944D01*
X138009527Y-117046556D01*
X138068542Y-116864928D01*
X138088504Y-116675000D01*
X138070381Y-116502572D01*
X138069232Y-116491635D01*
X138069232Y-116491633D01*
X138068542Y-116485072D01*
X138009527Y-116303444D01*
X137997238Y-116282158D01*
X137932579Y-116170166D01*
X137914040Y-116138056D01*
X137874195Y-116093803D01*
X137790675Y-116001045D01*
X137790674Y-116001044D01*
X137786253Y-115996134D01*
X137631752Y-115883882D01*
X137625724Y-115881198D01*
X137625722Y-115881197D01*
X137463319Y-115808891D01*
X137463318Y-115808891D01*
X137457288Y-115806206D01*
X137352818Y-115784000D01*
X137276944Y-115767872D01*
X137276939Y-115767872D01*
X137270487Y-115766500D01*
X137177102Y-115766500D01*
X137108981Y-115746498D01*
X137062488Y-115692842D01*
X137052384Y-115622568D01*
X137057269Y-115601564D01*
X137091502Y-115496206D01*
X137093542Y-115489928D01*
X137113504Y-115300000D01*
X137093542Y-115110072D01*
X137034527Y-114928444D01*
X136939040Y-114763056D01*
X136811253Y-114621134D01*
X136656752Y-114508882D01*
X136650724Y-114506198D01*
X136650722Y-114506197D01*
X136488319Y-114433891D01*
X136488318Y-114433891D01*
X136482288Y-114431206D01*
X136388887Y-114411353D01*
X136301944Y-114392872D01*
X136301939Y-114392872D01*
X136295487Y-114391500D01*
X136104513Y-114391500D01*
X136098061Y-114392872D01*
X136098056Y-114392872D01*
X136011113Y-114411353D01*
X135917712Y-114431206D01*
X135911682Y-114433891D01*
X135911681Y-114433891D01*
X135749278Y-114506197D01*
X135749276Y-114506198D01*
X135743248Y-114508882D01*
X135588747Y-114621134D01*
X135460960Y-114763056D01*
X135365473Y-114928444D01*
X135306458Y-115110072D01*
X135286496Y-115300000D01*
X130500000Y-115300000D01*
X130500000Y-111950000D01*
X131311496Y-111950000D01*
X131331458Y-112139928D01*
X131390473Y-112321556D01*
X131485960Y-112486944D01*
X131613747Y-112628866D01*
X131768248Y-112741118D01*
X131774276Y-112743802D01*
X131774278Y-112743803D01*
X131936681Y-112816109D01*
X131942712Y-112818794D01*
X132036113Y-112838647D01*
X132123056Y-112857128D01*
X132123061Y-112857128D01*
X132129513Y-112858500D01*
X132320487Y-112858500D01*
X132326939Y-112857128D01*
X132326944Y-112857128D01*
X132413887Y-112838647D01*
X132507288Y-112818794D01*
X132513319Y-112816109D01*
X132675722Y-112743803D01*
X132675724Y-112743802D01*
X132681752Y-112741118D01*
X132836253Y-112628866D01*
X132964040Y-112486944D01*
X133059527Y-112321556D01*
X133118542Y-112139928D01*
X133138504Y-111950000D01*
X133118542Y-111760072D01*
X133066531Y-111600000D01*
X133386496Y-111600000D01*
X133406458Y-111789928D01*
X133465473Y-111971556D01*
X133560960Y-112136944D01*
X133565378Y-112141851D01*
X133565379Y-112141852D01*
X133684325Y-112273955D01*
X133688747Y-112278866D01*
X133843248Y-112391118D01*
X133849276Y-112393802D01*
X133849278Y-112393803D01*
X134011681Y-112466109D01*
X134017712Y-112468794D01*
X134103101Y-112486944D01*
X134198056Y-112507128D01*
X134198061Y-112507128D01*
X134204513Y-112508500D01*
X134395487Y-112508500D01*
X134401939Y-112507128D01*
X134401944Y-112507128D01*
X134496899Y-112486944D01*
X134582288Y-112468794D01*
X134588319Y-112466109D01*
X134750722Y-112393803D01*
X134750724Y-112393802D01*
X134756752Y-112391118D01*
X134911253Y-112278866D01*
X134915675Y-112273955D01*
X135034621Y-112141852D01*
X135034622Y-112141851D01*
X135039040Y-112136944D01*
X135134527Y-111971556D01*
X135193542Y-111789928D01*
X135213504Y-111600000D01*
X135193542Y-111410072D01*
X135134527Y-111228444D01*
X135039040Y-111063056D01*
X134911253Y-110921134D01*
X134756752Y-110808882D01*
X134750724Y-110806198D01*
X134750722Y-110806197D01*
X134588319Y-110733891D01*
X134588318Y-110733891D01*
X134582288Y-110731206D01*
X134488888Y-110711353D01*
X134401944Y-110692872D01*
X134401939Y-110692872D01*
X134395487Y-110691500D01*
X134204513Y-110691500D01*
X134198061Y-110692872D01*
X134198056Y-110692872D01*
X134111112Y-110711353D01*
X134017712Y-110731206D01*
X134011682Y-110733891D01*
X134011681Y-110733891D01*
X133849278Y-110806197D01*
X133849276Y-110806198D01*
X133843248Y-110808882D01*
X133688747Y-110921134D01*
X133560960Y-111063056D01*
X133465473Y-111228444D01*
X133406458Y-111410072D01*
X133386496Y-111600000D01*
X133066531Y-111600000D01*
X133059527Y-111578444D01*
X132964040Y-111413056D01*
X132955701Y-111403794D01*
X132840675Y-111276045D01*
X132840674Y-111276044D01*
X132836253Y-111271134D01*
X132681752Y-111158882D01*
X132675724Y-111156198D01*
X132675722Y-111156197D01*
X132513319Y-111083891D01*
X132513318Y-111083891D01*
X132507288Y-111081206D01*
X132413887Y-111061353D01*
X132326944Y-111042872D01*
X132326939Y-111042872D01*
X132320487Y-111041500D01*
X132129513Y-111041500D01*
X132123061Y-111042872D01*
X132123056Y-111042872D01*
X132036113Y-111061353D01*
X131942712Y-111081206D01*
X131936682Y-111083891D01*
X131936681Y-111083891D01*
X131774278Y-111156197D01*
X131774276Y-111156198D01*
X131768248Y-111158882D01*
X131613747Y-111271134D01*
X131609326Y-111276044D01*
X131609325Y-111276045D01*
X131494300Y-111403794D01*
X131485960Y-111413056D01*
X131390473Y-111578444D01*
X131331458Y-111760072D01*
X131311496Y-111950000D01*
X130500000Y-111950000D01*
X130500000Y-106800000D01*
X135786496Y-106800000D01*
X135806458Y-106989928D01*
X135865473Y-107171556D01*
X135960960Y-107336944D01*
X136088747Y-107478866D01*
X136243248Y-107591118D01*
X136249276Y-107593802D01*
X136249278Y-107593803D01*
X136411681Y-107666109D01*
X136417712Y-107668794D01*
X136511112Y-107688647D01*
X136598056Y-107707128D01*
X136598061Y-107707128D01*
X136604513Y-107708500D01*
X136795487Y-107708500D01*
X136801939Y-107707128D01*
X136801944Y-107707128D01*
X136888888Y-107688647D01*
X136982288Y-107668794D01*
X136988319Y-107666109D01*
X137150722Y-107593803D01*
X137150724Y-107593802D01*
X137156752Y-107591118D01*
X137311253Y-107478866D01*
X137439040Y-107336944D01*
X137534527Y-107171556D01*
X137593542Y-106989928D01*
X137613504Y-106800000D01*
X137593542Y-106610072D01*
X137534527Y-106428444D01*
X137439040Y-106263056D01*
X137311253Y-106121134D01*
X137156752Y-106008882D01*
X137150724Y-106006198D01*
X137150722Y-106006197D01*
X136988319Y-105933891D01*
X136988318Y-105933891D01*
X136982288Y-105931206D01*
X136888888Y-105911353D01*
X136801944Y-105892872D01*
X136801939Y-105892872D01*
X136795487Y-105891500D01*
X136604513Y-105891500D01*
X136598061Y-105892872D01*
X136598056Y-105892872D01*
X136511112Y-105911353D01*
X136417712Y-105931206D01*
X136411682Y-105933891D01*
X136411681Y-105933891D01*
X136249278Y-106006197D01*
X136249276Y-106006198D01*
X136243248Y-106008882D01*
X136088747Y-106121134D01*
X135960960Y-106263056D01*
X135865473Y-106428444D01*
X135806458Y-106610072D01*
X135786496Y-106800000D01*
X130500000Y-106800000D01*
X130500000Y-104048638D01*
X131231500Y-104048638D01*
X131238011Y-104109201D01*
X131289111Y-104246204D01*
X131294510Y-104253416D01*
X131294511Y-104253418D01*
X131327504Y-104297491D01*
X131376739Y-104363261D01*
X131493796Y-104450889D01*
X131630799Y-104501989D01*
X131667705Y-104505957D01*
X131688012Y-104508140D01*
X131688015Y-104508140D01*
X131691362Y-104508500D01*
X133388638Y-104508500D01*
X133391985Y-104508140D01*
X133391988Y-104508140D01*
X133412295Y-104505957D01*
X133449201Y-104501989D01*
X133586204Y-104450889D01*
X133703261Y-104363261D01*
X133752496Y-104297491D01*
X133761052Y-104286062D01*
X134318493Y-104286062D01*
X134327789Y-104298077D01*
X134378994Y-104333931D01*
X134388489Y-104339414D01*
X134585947Y-104431490D01*
X134596239Y-104435236D01*
X134806688Y-104491625D01*
X134817481Y-104493528D01*
X135034525Y-104512517D01*
X135045475Y-104512517D01*
X135262519Y-104493528D01*
X135273312Y-104491625D01*
X135483761Y-104435236D01*
X135494053Y-104431490D01*
X135691511Y-104339414D01*
X135701006Y-104333931D01*
X135753048Y-104297491D01*
X135761424Y-104287012D01*
X135754356Y-104273566D01*
X135052812Y-103572022D01*
X135038868Y-103564408D01*
X135037035Y-103564539D01*
X135030420Y-103568790D01*
X134324923Y-104274287D01*
X134318493Y-104286062D01*
X133761052Y-104286062D01*
X133785489Y-104253418D01*
X133785490Y-104253416D01*
X133790889Y-104246204D01*
X133841989Y-104109201D01*
X133848500Y-104048638D01*
X133848500Y-104045269D01*
X133848520Y-104044899D01*
X133872143Y-103977948D01*
X133918160Y-103942204D01*
X133917141Y-103940266D01*
X133928010Y-103934553D01*
X133928212Y-103934396D01*
X133928342Y-103934378D01*
X133966434Y-103914356D01*
X134667978Y-103212812D01*
X134674356Y-103201132D01*
X135404408Y-103201132D01*
X135404539Y-103202965D01*
X135408790Y-103209580D01*
X136114287Y-103915077D01*
X136126062Y-103921507D01*
X136138077Y-103912211D01*
X136173931Y-103861006D01*
X136179414Y-103851511D01*
X136271490Y-103654053D01*
X136275236Y-103643761D01*
X136331625Y-103433312D01*
X136333528Y-103422519D01*
X136352517Y-103205475D01*
X136352517Y-103194525D01*
X136333528Y-102977481D01*
X136331625Y-102966688D01*
X136275236Y-102756239D01*
X136271490Y-102745947D01*
X136179414Y-102548489D01*
X136173931Y-102538994D01*
X136137491Y-102486952D01*
X136127012Y-102478576D01*
X136113566Y-102485644D01*
X135412022Y-103187188D01*
X135404408Y-103201132D01*
X134674356Y-103201132D01*
X134675592Y-103198868D01*
X134675461Y-103197035D01*
X134671210Y-103190420D01*
X133965713Y-102484923D01*
X133923946Y-102462116D01*
X133913999Y-102459951D01*
X133863801Y-102409745D01*
X133848574Y-102356112D01*
X133848500Y-102354731D01*
X133848500Y-102351362D01*
X133841989Y-102290799D01*
X133790889Y-102153796D01*
X133769867Y-102125713D01*
X133760341Y-102112988D01*
X134318576Y-102112988D01*
X134325644Y-102126434D01*
X135027188Y-102827978D01*
X135041132Y-102835592D01*
X135042965Y-102835461D01*
X135049580Y-102831210D01*
X135755077Y-102125713D01*
X135761507Y-102113938D01*
X135752211Y-102101923D01*
X135701006Y-102066069D01*
X135691511Y-102060586D01*
X135494053Y-101968510D01*
X135483761Y-101964764D01*
X135273312Y-101908375D01*
X135262519Y-101906472D01*
X135045475Y-101887483D01*
X135034525Y-101887483D01*
X134817481Y-101906472D01*
X134806688Y-101908375D01*
X134596239Y-101964764D01*
X134585947Y-101968510D01*
X134388489Y-102060586D01*
X134378994Y-102066069D01*
X134326952Y-102102509D01*
X134318576Y-102112988D01*
X133760341Y-102112988D01*
X133708659Y-102043950D01*
X133703261Y-102036739D01*
X133586204Y-101949111D01*
X133449201Y-101898011D01*
X133412295Y-101894043D01*
X133391988Y-101891860D01*
X133391985Y-101891860D01*
X133388638Y-101891500D01*
X131691362Y-101891500D01*
X131688015Y-101891860D01*
X131688012Y-101891860D01*
X131667705Y-101894043D01*
X131630799Y-101898011D01*
X131493796Y-101949111D01*
X131376739Y-102036739D01*
X131371341Y-102043950D01*
X131310134Y-102125713D01*
X131289111Y-102153796D01*
X131238011Y-102290799D01*
X131231500Y-102351362D01*
X131231500Y-104048638D01*
X130500000Y-104048638D01*
X130500000Y-98850000D01*
X134461496Y-98850000D01*
X134481458Y-99039928D01*
X134540473Y-99221556D01*
X134635960Y-99386944D01*
X134763747Y-99528866D01*
X134918248Y-99641118D01*
X134924276Y-99643802D01*
X134924278Y-99643803D01*
X135086681Y-99716109D01*
X135092712Y-99718794D01*
X135186113Y-99738647D01*
X135273056Y-99757128D01*
X135273061Y-99757128D01*
X135279513Y-99758500D01*
X135470487Y-99758500D01*
X135476939Y-99757128D01*
X135476944Y-99757128D01*
X135563887Y-99738647D01*
X135657288Y-99718794D01*
X135663319Y-99716109D01*
X135825722Y-99643803D01*
X135825724Y-99643802D01*
X135831752Y-99641118D01*
X135986253Y-99528866D01*
X136114040Y-99386944D01*
X136209527Y-99221556D01*
X136268542Y-99039928D01*
X136288504Y-98850000D01*
X136276115Y-98732128D01*
X136269232Y-98666635D01*
X136269232Y-98666633D01*
X136268542Y-98660072D01*
X136209527Y-98478444D01*
X136114040Y-98313056D01*
X135986253Y-98171134D01*
X135831752Y-98058882D01*
X135825724Y-98056198D01*
X135825722Y-98056197D01*
X135663319Y-97983891D01*
X135663318Y-97983891D01*
X135657288Y-97981206D01*
X135563888Y-97961353D01*
X135476944Y-97942872D01*
X135476939Y-97942872D01*
X135470487Y-97941500D01*
X135279513Y-97941500D01*
X135273061Y-97942872D01*
X135273056Y-97942872D01*
X135186112Y-97961353D01*
X135092712Y-97981206D01*
X135086682Y-97983891D01*
X135086681Y-97983891D01*
X134924278Y-98056197D01*
X134924276Y-98056198D01*
X134918248Y-98058882D01*
X134763747Y-98171134D01*
X134635960Y-98313056D01*
X134540473Y-98478444D01*
X134481458Y-98660072D01*
X134480768Y-98666633D01*
X134480768Y-98666635D01*
X134473885Y-98732128D01*
X134461496Y-98850000D01*
X130500000Y-98850000D01*
X130500000Y-97825000D01*
X131061496Y-97825000D01*
X131062186Y-97831565D01*
X131077770Y-97979834D01*
X131081458Y-98014928D01*
X131140473Y-98196556D01*
X131235960Y-98361944D01*
X131363747Y-98503866D01*
X131518248Y-98616118D01*
X131524276Y-98618802D01*
X131524278Y-98618803D01*
X131686681Y-98691109D01*
X131692712Y-98693794D01*
X131786113Y-98713647D01*
X131873056Y-98732128D01*
X131873061Y-98732128D01*
X131879513Y-98733500D01*
X132070487Y-98733500D01*
X132076939Y-98732128D01*
X132076944Y-98732128D01*
X132163887Y-98713647D01*
X132257288Y-98693794D01*
X132263319Y-98691109D01*
X132425722Y-98618803D01*
X132425724Y-98618802D01*
X132431752Y-98616118D01*
X132586253Y-98503866D01*
X132714040Y-98361944D01*
X132809527Y-98196556D01*
X132868542Y-98014928D01*
X132872231Y-97979834D01*
X132887814Y-97831565D01*
X132888504Y-97825000D01*
X132868542Y-97635072D01*
X132809527Y-97453444D01*
X132714040Y-97288056D01*
X132586253Y-97146134D01*
X132431752Y-97033882D01*
X132425724Y-97031198D01*
X132425722Y-97031197D01*
X132263319Y-96958891D01*
X132263318Y-96958891D01*
X132257288Y-96956206D01*
X132163888Y-96936353D01*
X132076944Y-96917872D01*
X132076939Y-96917872D01*
X132070487Y-96916500D01*
X131879513Y-96916500D01*
X131873061Y-96917872D01*
X131873056Y-96917872D01*
X131786113Y-96936353D01*
X131692712Y-96956206D01*
X131686682Y-96958891D01*
X131686681Y-96958891D01*
X131524278Y-97031197D01*
X131524276Y-97031198D01*
X131518248Y-97033882D01*
X131363747Y-97146134D01*
X131235960Y-97288056D01*
X131140473Y-97453444D01*
X131081458Y-97635072D01*
X131061496Y-97825000D01*
X130500000Y-97825000D01*
X130500000Y-92948638D01*
X131209121Y-92948638D01*
X131215632Y-93009201D01*
X131266732Y-93146204D01*
X131272131Y-93153416D01*
X131272132Y-93153418D01*
X131305125Y-93197491D01*
X131354360Y-93263261D01*
X131471417Y-93350889D01*
X131608420Y-93401989D01*
X131645326Y-93405957D01*
X131665633Y-93408140D01*
X131665636Y-93408140D01*
X131668983Y-93408500D01*
X133366259Y-93408500D01*
X133369606Y-93408140D01*
X133369609Y-93408140D01*
X133389916Y-93405957D01*
X133426822Y-93401989D01*
X133563825Y-93350889D01*
X133680882Y-93263261D01*
X133730117Y-93197491D01*
X133738673Y-93186062D01*
X134296114Y-93186062D01*
X134305410Y-93198077D01*
X134356615Y-93233931D01*
X134366110Y-93239414D01*
X134563568Y-93331490D01*
X134573860Y-93335236D01*
X134784309Y-93391625D01*
X134795102Y-93393528D01*
X135012146Y-93412517D01*
X135023096Y-93412517D01*
X135240140Y-93393528D01*
X135250933Y-93391625D01*
X135461382Y-93335236D01*
X135471674Y-93331490D01*
X135669132Y-93239414D01*
X135678627Y-93233931D01*
X135730669Y-93197491D01*
X135739045Y-93187012D01*
X135731977Y-93173566D01*
X135030433Y-92472022D01*
X135016489Y-92464408D01*
X135014656Y-92464539D01*
X135008041Y-92468790D01*
X134302544Y-93174287D01*
X134296114Y-93186062D01*
X133738673Y-93186062D01*
X133763110Y-93153418D01*
X133763111Y-93153416D01*
X133768510Y-93146204D01*
X133819610Y-93009201D01*
X133826121Y-92948638D01*
X133826121Y-92945269D01*
X133826141Y-92944899D01*
X133849764Y-92877948D01*
X133895781Y-92842204D01*
X133894762Y-92840266D01*
X133905631Y-92834553D01*
X133905833Y-92834396D01*
X133905963Y-92834378D01*
X133944055Y-92814356D01*
X134645599Y-92112812D01*
X134651977Y-92101132D01*
X135382029Y-92101132D01*
X135382160Y-92102965D01*
X135386411Y-92109580D01*
X136091908Y-92815077D01*
X136103683Y-92821507D01*
X136115698Y-92812211D01*
X136151552Y-92761006D01*
X136157035Y-92751511D01*
X136249111Y-92554053D01*
X136252857Y-92543761D01*
X136309246Y-92333312D01*
X136311149Y-92322519D01*
X136330138Y-92105475D01*
X136330138Y-92094525D01*
X136311149Y-91877481D01*
X136309246Y-91866688D01*
X136252857Y-91656239D01*
X136249111Y-91645947D01*
X136157035Y-91448489D01*
X136151552Y-91438994D01*
X136115112Y-91386952D01*
X136104633Y-91378576D01*
X136091187Y-91385644D01*
X135389643Y-92087188D01*
X135382029Y-92101132D01*
X134651977Y-92101132D01*
X134653213Y-92098868D01*
X134653082Y-92097035D01*
X134648831Y-92090420D01*
X133943334Y-91384923D01*
X133901567Y-91362116D01*
X133891620Y-91359951D01*
X133841422Y-91309745D01*
X133826195Y-91256112D01*
X133826121Y-91254731D01*
X133826121Y-91251362D01*
X133819610Y-91190799D01*
X133768510Y-91053796D01*
X133747488Y-91025713D01*
X133737962Y-91012988D01*
X134296197Y-91012988D01*
X134303265Y-91026434D01*
X135004809Y-91727978D01*
X135018753Y-91735592D01*
X135020586Y-91735461D01*
X135027201Y-91731210D01*
X135732698Y-91025713D01*
X135739128Y-91013938D01*
X135729832Y-91001923D01*
X135678627Y-90966069D01*
X135669132Y-90960586D01*
X135471674Y-90868510D01*
X135461382Y-90864764D01*
X135250933Y-90808375D01*
X135240140Y-90806472D01*
X135023096Y-90787483D01*
X135012146Y-90787483D01*
X134795102Y-90806472D01*
X134784309Y-90808375D01*
X134573860Y-90864764D01*
X134563568Y-90868510D01*
X134366110Y-90960586D01*
X134356615Y-90966069D01*
X134304573Y-91002509D01*
X134296197Y-91012988D01*
X133737962Y-91012988D01*
X133686280Y-90943950D01*
X133680882Y-90936739D01*
X133563825Y-90849111D01*
X133426822Y-90798011D01*
X133389916Y-90794043D01*
X133369609Y-90791860D01*
X133369606Y-90791860D01*
X133366259Y-90791500D01*
X131668983Y-90791500D01*
X131665636Y-90791860D01*
X131665633Y-90791860D01*
X131645326Y-90794043D01*
X131608420Y-90798011D01*
X131471417Y-90849111D01*
X131354360Y-90936739D01*
X131348962Y-90943950D01*
X131287755Y-91025713D01*
X131266732Y-91053796D01*
X131215632Y-91190799D01*
X131209121Y-91251362D01*
X131209121Y-92948638D01*
X130500000Y-92948638D01*
X130500000Y-87743065D01*
X130520002Y-87674944D01*
X130573658Y-87628451D01*
X130643932Y-87618347D01*
X130703391Y-87643634D01*
X130831139Y-87743065D01*
X130854424Y-87761189D01*
X131052426Y-87868342D01*
X131265365Y-87941444D01*
X131270499Y-87942301D01*
X131270504Y-87942302D01*
X131482294Y-87977643D01*
X131482296Y-87977643D01*
X131487431Y-87978500D01*
X131712569Y-87978500D01*
X131717704Y-87977643D01*
X131717706Y-87977643D01*
X131929496Y-87942302D01*
X131929501Y-87942301D01*
X131934635Y-87941444D01*
X132147574Y-87868342D01*
X132345576Y-87761189D01*
X132368862Y-87743065D01*
X132519121Y-87626112D01*
X132523240Y-87622906D01*
X132570640Y-87571417D01*
X132672194Y-87461101D01*
X132672197Y-87461097D01*
X132675722Y-87457268D01*
X132798860Y-87268791D01*
X132889296Y-87062616D01*
X132944564Y-86844368D01*
X132963156Y-86620000D01*
X132944564Y-86395632D01*
X132889296Y-86177384D01*
X132798860Y-85971209D01*
X132675722Y-85782732D01*
X132672197Y-85778903D01*
X132672194Y-85778899D01*
X132526772Y-85620931D01*
X132523240Y-85617094D01*
X132449100Y-85559388D01*
X132349689Y-85482012D01*
X132349687Y-85482010D01*
X132345576Y-85478811D01*
X132311792Y-85460528D01*
X132261403Y-85410515D01*
X132246051Y-85341198D01*
X132270612Y-85274585D01*
X132311794Y-85238901D01*
X132340719Y-85223248D01*
X132349411Y-85217569D01*
X132518789Y-85085737D01*
X132526432Y-85078700D01*
X132671790Y-84920799D01*
X132678177Y-84912593D01*
X132795569Y-84732913D01*
X132800512Y-84723778D01*
X132886730Y-84527223D01*
X132890100Y-84517408D01*
X132932097Y-84351561D01*
X132931567Y-84337470D01*
X132923145Y-84334000D01*
X131472000Y-84334000D01*
X131403879Y-84313998D01*
X131357386Y-84260342D01*
X131346000Y-84208000D01*
X131346000Y-83952000D01*
X131366002Y-83883879D01*
X131419658Y-83837386D01*
X131472000Y-83826000D01*
X132918429Y-83826000D01*
X132931960Y-83822027D01*
X132933256Y-83813014D01*
X132890100Y-83642592D01*
X132886730Y-83632777D01*
X132800512Y-83436222D01*
X132795569Y-83427087D01*
X132678177Y-83247407D01*
X132671795Y-83239207D01*
X132646139Y-83211338D01*
X132614718Y-83147673D01*
X132622704Y-83077127D01*
X132667563Y-83022098D01*
X132738840Y-83000000D01*
X139074000Y-83000000D01*
X139142121Y-83020002D01*
G37*
%TD.AperFunction*%
%TD*%
M02*
