M48
; DRILL file {KiCad (6.99.0-1665-g4ee6cfe5b6)} date Tue Jun 28 13:02:29 2022
; FORMAT={-:-/ absolute / inch / decimal}
; #@! TF.CreationDate,2022-06-28T13:02:29+08:00
; #@! TF.GenerationSoftware,Kicad,Pcbnew,(6.99.0-1665-g4ee6cfe5b6)
; #@! TF.FileFunction,Plated,1,4,PTH
FMAT,2
INCH
; #@! TA.AperFunction,Plated,PTH,ViaDrill
T1C0.0157
; #@! TA.AperFunction,Plated,PTH,ComponentDrill
T2C0.0236
; #@! TA.AperFunction,Plated,PTH,ComponentDrill
T3C0.0315
; #@! TA.AperFunction,Plated,PTH,ComponentDrill
T4C0.0394
; #@! TA.AperFunction,Plated,PTH,ComponentDrill
T5C0.0591
; #@! TA.AperFunction,Plated,PTH,ComponentDrill
T6C0.0669
%
G90
G05
T1
X5.1496Y-4.1831
X5.1535Y-3.7303
X5.1535Y-4.7992
X5.1555Y-3.9518
X5.1555Y-4.315
X5.1575Y-5.0
X5.1644Y-2.5846
X5.1732Y-2.3307
X5.1732Y-2.75
X5.1831Y-2.8593
X5.1929Y-5.3425
X5.1959Y-3.8514
X5.2057Y-4.4075
X5.2057Y-4.7992
X5.2057Y-5.1841
X5.2205Y-2.1299
X5.2417Y-4.5028
X5.2477Y-4.5942
X5.2539Y-2.7835
X5.2638Y-5.3701
X5.2701Y-3.1098
X5.2717Y-3.8268
X5.2736Y-3.4163
X5.276Y-4.5024
X5.2815Y-4.7707
X5.2864Y-4.31
X5.2874Y-4.3937
X5.2904Y-4.8898
X5.2953Y-2.0472
X5.2953Y-2.248
X5.2953Y-3.5354
X5.2992Y-3.9813
X5.3051Y-3.3219
X5.3098Y-4.5028
X5.3287Y-4.8041
X5.3297Y-3.8917
X5.3307Y-3.2165
X5.3386Y-2.3386
X5.3622Y-4.5394
X5.363Y-4.4772
X5.373Y-3.8346
X5.3819Y-4.2047
X5.3967Y-3.313
X5.3976Y-3.7254
X5.4006Y-4.5935
X5.4006Y-4.8012
X5.4006Y-5.1841
X5.4134Y-3.3681
X5.4183Y-4.1339
X5.4213Y-3.6496
X5.4213Y-4.0226
X5.4262Y-3.44
X5.4321Y-2.4793
X5.4498Y-2.7185
X5.4498Y-2.9075
X5.4508Y-4.999
X5.4547Y-4.0689
X5.4547Y-4.7667
X5.4557Y-3.562
X5.4596Y-3.4104
X5.4606Y-5.3583
X5.4616Y-3.8406
X5.4634Y-4.3677
X5.4646Y-4.5335
X5.4646Y-4.7037
X5.502Y-2.0866
X5.502Y-2.185
X5.5236Y-2.5472
X5.5256Y-3.4646
X5.5276Y-3.7441
X5.5315Y-4.7992
X5.5374Y-2.6772
X5.5394Y-2.7953
X5.5472Y-2.9528
X5.5472Y-3.0906
X5.5512Y-2.0866
X5.5512Y-2.185
X5.5512Y-4.9646
X5.5512Y-5.0236
X5.5512Y-5.0827
X5.5512Y-5.1457
X5.5512Y-5.2008
X5.5591Y-3.4016
X5.5906Y-2.4724
X5.5984Y-5.2008
X5.6004Y-2.0866
X5.6004Y-2.185
X5.6063Y-2.2795
X5.6142Y-4.0492
X5.6142Y-5.2638
X5.624Y-2.3406
X5.6299Y-2.0276
X5.6319Y-4.6161
X5.6378Y-5.4094
X5.6457Y-4.7953
X5.6496Y-2.0866
X5.6496Y-2.185
X5.6496Y-5.2008
X5.6929Y-3.9882
X5.6988Y-2.0866
X5.6988Y-2.185
X5.6988Y-3.6929
X5.7047Y-4.2717
X5.7047Y-4.4429
X5.7087Y-4.7953
X5.7205Y-5.2008
X5.7264Y-3.8287
X5.7323Y-3.563
X5.748Y-2.0866
X5.748Y-2.185
X5.748Y-3.6457
X5.752Y-4.5945
X5.7717Y-2.0157
X5.7717Y-5.3898
X5.7736Y-3.1299
X5.7776Y-2.2343
X5.7776Y-2.2835
X5.7776Y-2.3327
X5.7776Y-2.3819
X5.7776Y-2.4311
X5.7776Y-2.4803
X5.7776Y-2.5295
X5.7776Y-2.5787
X5.7776Y-2.628
X5.7776Y-2.6772
X5.7776Y-2.7264
X5.7776Y-2.7756
X5.7776Y-2.8248
X5.7776Y-2.874
X5.7776Y-2.9232
X5.7776Y-2.9724
X5.7776Y-3.0217
X5.7776Y-3.0709
X5.7874Y-4.7205
X5.7972Y-2.0866
X5.8031Y-4.1063
X5.8169Y-3.7992
X5.8169Y-3.8484
X5.8169Y-3.8976
X5.8169Y-3.9469
X5.8386Y-5.2598
X5.8465Y-2.1358
X5.8465Y-4.9508
X5.8465Y-5.0492
X5.8661Y-2.185
X5.8661Y-2.2343
X5.8661Y-2.2835
X5.8661Y-2.3327
X5.8661Y-2.3819
X5.8661Y-2.4311
X5.8661Y-2.4803
X5.8661Y-2.5295
X5.8661Y-2.5787
X5.8661Y-2.628
X5.8661Y-2.6772
X5.8661Y-2.7264
X5.8661Y-2.7756
X5.8661Y-2.8248
X5.8661Y-2.874
X5.8661Y-2.9232
X5.8661Y-2.9724
X5.8661Y-3.0217
X5.8661Y-3.0709
X5.8661Y-3.1201
X5.874Y-4.6063
X5.876Y-3.7402
X5.8819Y-4.7638
X5.8957Y-4.9508
X5.8957Y-5.0492
X5.9094Y-3.3957
X5.9154Y-3.8484
X5.9173Y-2.2244
X5.9252Y-3.7303
X5.9488Y-2.7165
X5.9528Y-2.3465
X5.9528Y-2.5394
X5.9685Y-2.9094
X5.9744Y-3.7303
X5.9744Y-3.8287
X5.9744Y-4.5276
X5.9744Y-4.5768
X5.9744Y-4.626
X5.9744Y-4.6752
X5.9744Y-4.7244
X5.9744Y-4.7736
X5.9744Y-4.8228
X5.9744Y-4.872
X5.9744Y-4.9213
X5.9803Y-3.1063
X5.9843Y-4.3799
X5.9843Y-4.4193
X6.0236Y-2.1417
X6.0236Y-3.7303
X6.0236Y-3.8287
X6.0266Y-4.3002
X6.0433Y-4.2087
X6.063Y-2.3228
X6.063Y-2.372
X6.063Y-2.4213
X6.063Y-2.4705
X6.063Y-2.5197
X6.063Y-2.5689
X6.063Y-2.6181
X6.063Y-2.6673
X6.063Y-2.7165
X6.063Y-2.7657
X6.063Y-2.815
X6.063Y-2.8642
X6.063Y-2.9134
X6.063Y-2.9626
X6.063Y-3.0118
X6.063Y-3.061
X6.063Y-3.1102
X6.063Y-3.1594
X6.063Y-3.2087
X6.063Y-3.2579
X6.063Y-3.4547
X6.063Y-3.5039
X6.063Y-3.6516
X6.063Y-3.7008
X6.0728Y-3.8287
X6.0728Y-4.5276
X6.0728Y-4.5768
X6.0728Y-4.626
X6.0728Y-4.6752
X6.0728Y-4.7244
X6.0728Y-4.7736
X6.0728Y-4.8228
X6.0728Y-4.872
X6.0925Y-4.9213
X6.0945Y-3.8937
X6.1181Y-2.0236
X6.122Y-3.7992
X6.122Y-4.122
X6.1614Y-2.3228
X6.1614Y-2.372
X6.1614Y-2.4213
X6.1614Y-2.4705
X6.1614Y-2.5197
X6.1614Y-2.5689
X6.1614Y-2.6181
X6.1614Y-2.6673
X6.1614Y-2.7165
X6.1614Y-2.7657
X6.1614Y-2.815
X6.1614Y-2.8642
X6.1614Y-2.9134
X6.1614Y-2.9626
X6.1614Y-3.0118
X6.1614Y-3.061
X6.1614Y-3.1102
X6.1614Y-3.1594
X6.1614Y-3.2087
X6.1614Y-3.2579
X6.1614Y-3.3071
X6.1614Y-3.3563
X6.1614Y-3.4547
X6.1614Y-3.5039
X6.1614Y-3.5531
X6.1614Y-3.6024
X6.1614Y-3.6516
X6.1614Y-3.7008
X6.1614Y-3.75
X6.1929Y-2.1339
X6.2087Y-4.061
X6.2126Y-3.878
X6.2224Y-4.6004
X6.2283Y-2.4449
X6.2421Y-3.3071
X6.252Y-5.4331
X6.2677Y-2.315
T3
X5.2133Y-2.4724
X5.2172Y-3.626
X5.2181Y-4.063
X5.3117Y-2.4724
X5.3157Y-3.626
X5.3165Y-4.063
X5.963Y-4.9992
X6.1008Y-4.9992
T4
X5.1811Y-3.1102
X5.1811Y-3.2102
X5.1811Y-3.3102
X5.1811Y-3.4102
T5
X5.3071Y-2.1374
X6.1102Y-2.1398
T6
X5.2071Y-2.0374
X5.2071Y-2.2374
X5.4071Y-2.0374
X5.4071Y-2.2374
X6.0102Y-2.0398
X6.0102Y-2.2398
X6.2102Y-2.0398
X6.2102Y-2.2398
T2
G00X5.222Y-2.6488
M15
G01X5.1984Y-2.6488
M16
G05
G00X5.222Y-2.989
M15
G01X5.1984Y-2.989
M16
G05
G00X5.3965Y-2.6488
M15
G01X5.3531Y-2.6488
M16
G05
G00X5.3965Y-2.989
M15
G01X5.3531Y-2.989
M16
G05
T0
M30
